<?xml version="1.0" encoding="UTF-8" standalone="no"?>
<svg width="22px" height="22px" viewBox="0 0 22 22" version="1.1" xmlns="http://www.w3.org/2000/svg" xmlns:xlink="http://www.w3.org/1999/xlink" xmlns:sketch="http://www.bohemiancoding.com/sketch/ns">
    <!-- Generator: Sketch 3.4.4 (17249) - http://www.bohemiancoding.com/sketch -->
    <title>feedback-icon</title>
    <desc>Created with Sketch.</desc>
    <defs></defs>
    <g id="Docs-1.2" stroke="none" stroke-width="1" fill="none" fill-rule="evenodd" sketch:type="MSPage">
        <g id="IA-v2-&gt;-User-Guide" sketch:type="MSArtboardGroup" transform="translate(-730.000000, -1441.000000)">
            <g id="Content" sketch:type="MSLayerGroup" transform="translate(170.000000, 227.000000)">
                <g id="sub-footer" transform="translate(300.000000, 1168.000000)" sketch:type="MSShapeGroup">
                    <g id="Was-this-helpful?" transform="translate(0.000000, 46.000000)">
                        <g id="feedback-icon" transform="translate(260.000000, 0.000000)">
                            <circle id="Oval-2" fill="#1A82E2" cx="11" cy="11" r="11"></circle>
                            <path d="M10.5,13.1550417 C10.5,13.913125 9.88308333,14.5300417 9.125,14.5300417 C8.36691667,14.5300417 7.75,13.913125 7.75,13.1550417 L7.75,12.2773333 L10.5,13.1147083 L10.5,13.1550417 Z M15.7708333,6 C15.6443333,6 15.5416667,6.10266667 15.5416667,6.22916667 L15.5416667,6.51791667 L5.45833333,9.58645833 L5.45833333,9.4375 C5.45833333,9.311 5.35520833,9.20833333 5.22916667,9.20833333 C5.10266667,9.20833333 5,9.311 5,9.4375 L5,9.89583333 L5,11.2708333 L5,11.7291667 C5,11.8556667 5.10266667,11.9583333 5.22916667,11.9583333 C5.35520833,11.9583333 5.45833333,11.8556667 5.45833333,11.7291667 L5.45833333,11.57975 L7.29166667,12.138 L7.29166667,13.1550417 C7.29166667,14.166125 8.11391667,14.988375 9.125,14.988375 C10.102625,14.988375 10.9019583,14.2179167 10.9528333,13.2522083 L15.5416667,14.64875 L15.5416667,14.9375 C15.5416667,15.064 15.6443333,15.1666667 15.7708333,15.1666667 C15.896875,15.1666667 16,15.064 16,14.9375 L16,14.4791667 L16,6.6875 L16,6.22916667 C16,6.10266667 15.896875,6 15.7708333,6 L15.7708333,6 Z" id="Fill-342" fill="#FFFFFF"></path>
                        </g>
                    </g>
                </g>
            </g>
        </g>
    </g>
</svg>
