<?xml version="1.0" encoding="UTF-8" standalone="no"?>
<svg width="16px" height="16px" viewBox="0 0 16 16" version="1.1" xmlns="http://www.w3.org/2000/svg" xmlns:xlink="http://www.w3.org/1999/xlink" xmlns:sketch="http://www.bohemiancoding.com/sketch/ns">
    <!-- Generator: Sketch 3.5.2 (25235) - http://www.bohemiancoding.com/sketch -->
    <title>Artboard 19</title>
    <desc>Created with Sketch.</desc>
    <defs></defs>
    <g id="Product-Styles" stroke="none" stroke-width="1" fill="none" fill-rule="evenodd" sketch:type="MSPage">
        <g id="Artboard-19" sketch:type="MSArtboardGroup" stroke="#4D4D4D" stroke-linejoin="round">
            <g id="Group-2" sketch:type="MSLayerGroup" transform="translate(3.000000, 1.500000)">
                <path d="M5.27777778,7.79166667 C5.27777778,7.95208333 5.15333333,8.08333333 5,8.08333333 C4.84666667,8.08333333 4.72222222,7.95208333 4.72222222,7.79166667 C4.72222222,7.63008333 4.84666667,7.5 5,7.5 C5.15333333,7.5 5.27777778,7.63008333 5.27777778,7.79166667 L5.27777778,7.79166667 Z" id="Stroke-17" sketch:type="MSShapeGroup"></path>
                <path d="M5,8 L5,10.5" id="Stroke-19" stroke-linecap="round" sketch:type="MSShapeGroup"></path>
                <path d="M9.5,5 L0.5,5 L0.5,13 L9.5,13 L9.5,5 Z" id="Stroke-21" sketch:type="MSShapeGroup"></path>
                <path d="M2,3.05555556 C2,1.36777778 3.34290909,0 5,0 C6.65709091,0 8,1.36777778 8,3.05555556 L8,5 L2,5 L2,3.05555556 L2,3.05555556 Z" id="Stroke-23" sketch:type="MSShapeGroup"></path>
            </g>
        </g>
    </g>
</svg>
