<?xml version="1.0" encoding="UTF-8" standalone="no"?>
<svg width="45px" height="43px" viewBox="0 0 45 43" version="1.1" xmlns="http://www.w3.org/2000/svg" xmlns:xlink="http://www.w3.org/1999/xlink" xmlns:sketch="http://www.bohemiancoding.com/sketch/ns">
    <!-- Generator: Sketch 3.4.4 (17249) - http://www.bohemiancoding.com/sketch -->
    <title>glossary-icon</title>
    <desc>Created with Sketch.</desc>
    <defs></defs>
    <g id="Docs-1.2" stroke="none" stroke-width="1" fill="none" fill-rule="evenodd" sketch:type="MSPage">
        <g id="IA-v2-&gt;-Home-v2" sketch:type="MSArtboardGroup" transform="translate(-818.000000, -582.000000)" stroke-linecap="round" stroke-width="1.5" stroke-linejoin="round">
            <g id="Content" sketch:type="MSLayerGroup" transform="translate(250.000000, 227.000000)">
                <g id="Getting-Started" transform="translate(0.000000, 105.000000)" sketch:type="MSShapeGroup">
                    <g id="Glossary" transform="translate(400.000000, 225.000000)">
                        <g id="glossary-icon" transform="translate(168.000000, 25.000000)">
                            <path d="M40.1086957,4.88636364 L44.0217391,4.88636364 L44.0217391,36.1590909 L32.2826087,36.1590909 C28.3695652,36.1590909 25.4347826,38.1136364 25.4347826,42.0227273 L19.5652174,42.0227273 C19.5652174,38.1136364 16.6304348,36.1590909 12.7173913,36.1590909 L0.97826087,36.1590909 L0.97826087,4.88636364 L4.89130435,4.88636364" id="Stroke-583" stroke="#880E4F"></path>
                            <path d="M22.5305217,38.1136364 C22.5305217,34.2045455 24.4557391,32.25 28.3687826,32.25 L40.107913,32.25 L40.107913,0.977272727 L28.3687826,0.977272727 C24.4557391,0.977272727 22.4992174,2.93181818 22.4992174,6.84090909 C22.4992174,2.93181818 20.5426957,0.977272727 16.6296522,0.977272727 L4.89052174,0.977272727 L4.89052174,32.25 L16.6296522,32.25 C20.5426957,32.25 22.5305217,34.2045455 22.5305217,38.1136364 L22.5305217,38.1136364 Z" id="Stroke-582" stroke="#9E9E9E"></path>
                            <path d="M22.5,6 L22.5,37" id="Stroke-584" stroke="#9E9E9E"></path>
                        </g>
                    </g>
                </g>
            </g>
        </g>
    </g>
</svg>
