<?xml version="1.0" encoding="UTF-8" standalone="no"?>
<svg width="22px" height="22px" viewBox="0 0 22 22" version="1.1" xmlns="http://www.w3.org/2000/svg" xmlns:xlink="http://www.w3.org/1999/xlink" xmlns:sketch="http://www.bohemiancoding.com/sketch/ns">
    <!-- Generator: Sketch 3.4.4 (17249) - http://www.bohemiancoding.com/sketch -->
    <title>helpful-yes-icon</title>
    <desc>Created with Sketch.</desc>
    <defs></defs>
    <g id="Docs-1.2" stroke="none" stroke-width="1" fill="none" fill-rule="evenodd" sketch:type="MSPage">
        <g id="IA-v2-&gt;-User-Guide" sketch:type="MSArtboardGroup" transform="translate(-593.000000, -1441.000000)">
            <g id="Content" sketch:type="MSLayerGroup" transform="translate(170.000000, 227.000000)">
                <g id="sub-footer" transform="translate(300.000000, 1168.000000)" sketch:type="MSShapeGroup">
                    <g id="Was-this-helpful?" transform="translate(0.000000, 46.000000)">
                        <g id="helpful-yes-icon" transform="translate(123.000000, 0.000000)">
                            <circle id="Oval-2" fill="#18C96E" cx="11" cy="11" r="11"></circle>
                            <path d="M16.6000061,10.4734959 C16.6000061,9.89928861 16.1710061,9.43232221 15.6434844,9.43232221 L12.1239626,9.43232221 C12.2612235,8.82011208 12.5347887,7.49730091 12.5347887,6.68310309 C12.5347887,5.66431464 11.9752235,5.19995117 11.4558322,5.19995117 C10.9804409,5.19995117 10.6217452,5.56436196 10.6217452,6.04850773 C10.6217452,8.34950157 8.85744089,9.95290905 7.27391915,9.95290905 L5.83913654,9.95290905 C5.70713654,9.95290905 5.6000061,10.0695205 5.6000061,10.2132025 L5.6000061,14.8984841 C5.6000061,15.0426866 5.70713654,15.1587775 5.83913654,15.1587775 C8.0310061,15.1587775 8.78044089,15.5091324 9.38304958,15.7907699 C9.83357132,16.0016076 10.258267,16.1999512 11.1000061,16.1999512 L14.2087018,16.1999512 C14.7362235,16.1999512 15.1652235,15.7329848 15.1652235,15.1587775 C15.1652235,14.9448163 15.1054409,14.7454315 15.0030931,14.5798849 C15.3756583,14.4372441 15.6434844,14.0504481 15.6434844,13.597017 C15.6434844,13.3830558 15.5837018,13.183671 15.4813539,13.0181244 C15.8539191,12.8754836 16.1217452,12.4886876 16.1217452,12.0352564 C16.1217452,11.8212952 16.0619626,11.6219105 15.9596148,11.4563639 C16.33218,11.3137231 16.6000061,10.926927 16.6000061,10.4734959" id="Fill-250" fill="#FFFFFF"></path>
                        </g>
                    </g>
                </g>
            </g>
        </g>
    </g>
</svg>
