<?xml version="1.0" encoding="UTF-8" standalone="no"?>
<svg width="35px" height="45px" viewBox="0 0 35 45" version="1.1" xmlns="http://www.w3.org/2000/svg" xmlns:xlink="http://www.w3.org/1999/xlink">
    <!-- Generator: Sketch 40.2 (33826) - http://www.bohemiancoding.com/sketch -->
    <title>icon-tutorials</title>
    <desc>Created with Sketch.</desc>
    <defs></defs>
    <g id="UI" stroke="none" stroke-width="1" fill="none" fill-rule="evenodd" opacity="0.7">
        <g id="Migration-Toolkit-Home" transform="translate(-1011.000000, -571.000000)">
            <g id="Content" transform="translate(487.000000, 183.000000)">
                <g id="Getting-Started" transform="translate(0.000000, 140.000000)">
                    <g id="Migration-Tuts" transform="translate(371.000000, 224.000000)">
                        <g id="icon-tutorials" transform="translate(148.000000, 24.000000)">
                            <rect id="Rectangle-path" x="0" y="0" width="45" height="45"></rect>
                            <path d="M32.8125,8.4375 L38.4375,8.4375 L38.4375,44.0625 L10.3125,44.0625 C8.2425,44.0625 6.5625,42.3825 6.5625,40.3125 L6.5625,4.6875" id="Shape" stroke="#294661" stroke-width="1.5"></path>
                            <path d="M36.5625,8.4375 L36.5625,0.9375 L10.3125,0.9375 C8.2425,0.9375 6.5625,2.615625 6.5625,4.6875 C6.5625,6.7575 8.2425,8.4375 10.3125,8.4375 L21.5625,8.4375" id="Shape" stroke="#294661" stroke-width="1.5"></path>
                            <polygon id="Shape" stroke="#DEA7E8" stroke-width="1.5" stroke-linejoin="round" points="32.8125 29.0625 27.1875 23.4375 21.5625 29.0625 21.5625 6.5625 32.8125 6.5625"></polygon>
                        </g>
                    </g>
                </g>
            </g>
        </g>
    </g>
</svg>
