<?xml version="1.0" encoding="UTF-8" standalone="no"?>
<svg width="22px" height="22px" viewBox="0 0 22 22" version="1.1" xmlns="http://www.w3.org/2000/svg" xmlns:xlink="http://www.w3.org/1999/xlink" xmlns:sketch="http://www.bohemiancoding.com/sketch/ns">
    <!-- Generator: Sketch 3.4.4 (17249) - http://www.bohemiancoding.com/sketch -->
    <title>helpful-no-icon</title>
    <desc>Created with Sketch.</desc>
    <defs></defs>
    <g id="Docs-1.2" stroke="none" stroke-width="1" fill="none" fill-rule="evenodd" sketch:type="MSPage">
        <g id="IA-v2-&gt;-User-Guide" sketch:type="MSArtboardGroup" transform="translate(-663.000000, -1441.000000)">
            <g id="Content" sketch:type="MSLayerGroup" transform="translate(170.000000, 227.000000)">
                <g id="sub-footer" transform="translate(300.000000, 1168.000000)" sketch:type="MSShapeGroup">
                    <g id="Was-this-helpful?" transform="translate(0.000000, 46.000000)">
                        <g id="helpful-no-icon" transform="translate(193.000000, 0.000000)">
                            <circle id="Oval-2" fill="#B71C1C" cx="11" cy="11" r="11"></circle>
                            <path d="M15.4435027,10.5324199 L11.9239809,10.5324199 C12.0612418,9.92020974 12.334807,8.59739857 12.334807,7.78320074 C12.334807,6.76441229 11.7752418,6.30004883 11.2558505,6.30004883 C10.7804592,6.30004883 10.4217635,6.66445962 10.4217635,7.14860538 C10.4217635,9.44959923 8.6574592,11.0530067 7.07393746,11.0530067 L5.63915485,11.0530067 C5.50715485,11.0530067 5.40002441,11.1696182 5.40002441,11.3133001 L5.40002441,15.9985817 C5.40002441,16.1427843 5.50715485,16.2588751 5.63915485,16.2588751 C7.83102441,16.2588751 8.5804592,16.6092301 9.18306789,16.8908676 C9.63358963,17.1017052 10.0582853,17.3000488 10.9000244,17.3000488 L14.0087201,17.3000488 C14.5362418,17.3000488 14.9652418,16.8330824 14.9652418,16.2588751 C14.9652418,16.0449139 14.9054592,15.8455292 14.8031114,15.6799826 C15.1756766,15.5373418 15.4435027,15.1505458 15.4435027,14.6971146 C15.4435027,14.4831534 15.3837201,14.2837687 15.2813722,14.118222 C15.6539375,13.9755812 15.9217635,13.5887852 15.9217635,13.1353541 C15.9217635,12.9213929 15.8619809,12.7220081 15.7596331,12.5564615 C16.1321983,12.4138207 16.4000244,12.0270247 16.4000244,11.5735936 C16.4000244,10.9993863 15.9710244,10.5324199 15.4435027,10.5324199 Z" id="Fill-250" fill="#FFFFFF" transform="translate(10.900024, 11.800049) rotate(-180.000000) translate(-10.900024, -11.800049) "></path>
                        </g>
                    </g>
                </g>
            </g>
        </g>
    </g>
</svg>
