<svg xmlns="http://www.w3.org/2000/svg" width="169" height="204" viewBox="0 0 169 204">
  <defs>
    <linearGradient id="group-a" x1="50%" x2="50%" y1="-14.891%" y2="161.792%">
      <stop offset="0%" stop-color="#00BCD4"/>
      <stop offset="96%" stop-color="#00E5FF"/>
    </linearGradient>
    <linearGradient id="group-b" x1="50%" x2="50%" y1="-4.012%" y2="183.277%">
      <stop offset="0%" stop-color="#E8F2FC"/>
      <stop offset="84%" stop-color="#D1E6F9"/>
    </linearGradient>
    <radialGradient id="group-c" cx="11474%" cy="8304%" r="6352%" fx="11474%" fy="8304%">
      <stop offset="0%" stop-color="#00BCD4"/>
      <stop offset="96%" stop-color="#00E5FF"/>
    </radialGradient>
  </defs>
  <g fill="none">
    <rect width="150" height="183" x="19" y="21" fill="#76B4EE" rx="4.63"/>
    <path fill="#FFF" d="M148.953107,4.00000777 L8.04688572,4.00000777 C5.2595677,4.00000777 3,6.25844608 3,9.04437092 L3,182.434415 C3,185.508738 5.26270183,188 8.04688572,188 L148.953107,188 C151.746129,188 153.999992,185.508738 153.999992,182.434415 L153.999992,9.04437092 C154.002344,7.70580346 153.471375,6.42138386 152.52439,5.47487227 C151.577405,4.52836069 150.292343,3.99765734 148.953107,4.00000777 Z"/>
    <rect width="151" height="28" fill="#E8F2FC" rx="4.63"/>
    <rect width="151" height="136" y="21" fill="url(#group-a)"/>
    <rect width="151" height="1" y="12" fill="#A9B5C0"/>
    <path fill="url(#group-b)" d="M0,180.477411 C0,183.527984 2.25386326,186 5.04688598,186 L145.953114,186 C148.737298,186 151,183.527984 151,180.477411 L151,160 L0,160 L0,180.477411 Z"/>
    <path fill="#00E5FF" d="M123 30C121.895431 30 121 30.8954305 121 32 121 33.1045695 121.895431 34 123 34 124.104569 34 125 33.1045695 125 32 125 30.8954305 124.104569 30 123 30zM142 34C143.104569 34 144 33.1045695 144 32 144 30.8954305 143.104569 30 142 30 140.895431 30 140 30.8954305 140 32 140 33.1045695 140.895431 34 142 34zM123.009288 49.0000216C122.199543 48.9962727 121.467444 49.4811658 121.154967 50.2281988 120.84249 50.9752318 121.011306 51.8369689 121.582558 52.4108778 122.15381 52.9847867 123.014755 53.1575996 123.763231 52.8485926 124.511706 52.5395856 124.999991 51.8097449 125 50.9999918 125.000012 49.8990446 124.110224 49.0051186 123.009288 49.0000216zM142.009288 49.0000216C141.199543 48.9962727 140.467444 49.4811658 140.154967 50.2281988 139.84249 50.9752318 140.011306 51.8369689 140.582558 52.4108778 141.15381 52.9847867 142.014755 53.1575996 142.763231 52.8485926 143.511706 52.5395856 143.999991 51.8097449 144 50.9999918 144.000012 49.8990446 143.110224 49.0051186 142.009288 49.0000216zM123 68C121.895431 68 121 68.8954305 121 70 121 71.1045695 121.895431 72 123 72 124.104569 72 125 71.1045695 125 70 125 68.8954305 124.104569 68 123 68zM142 68C140.895431 68 140 68.8954305 140 70 140 71.1045695 140.895431 72 142 72 143.104569 72 144 71.1045695 144 70 144 68.8954305 143.104569 68 142 68z"/>
    <circle cx="85" cy="32" r="2" fill="#00E5FF"/>
    <path fill="#00E5FF" d="M103.990698 30.0000217C102.887354 30.0051536 101.996593 30.9028437 102.00001 32.0061943 102.003427 33.109545 102.899732 34.0017002 104.003086 33.9999976 105.106441 33.9982949 105.999988 33.1033775 106 32.0000216 106.000006 31.467973 105.788016 30.9578503 105.410929 30.582509 105.033841 30.2071677 104.522741 29.997547 103.990698 30.0000217zM85.0092878 49.0000216C84.1995429 48.9962727 83.4674439 49.4811658 83.1549669 50.2281988 82.8424898 50.9752318 83.0113059 51.8369689 83.5825581 52.4108778 84.1538103 52.9847867 85.0147552 53.1575996 85.7632306 52.8485926 86.511706 52.5395856 86.9999913 51.8097449 87 50.9999918 87.0000118 49.8990446 86.1102239 49.0051186 85.0092878 49.0000216zM104 49C102.895431 49 102 49.8954305 102 51 102 52.1045695 102.895431 53 104 53 105.104569 53 106 52.1045695 106 51 106 49.8954305 105.104569 49 104 49zM103.990698 68.0000217C102.887354 68.0051536 101.996593 68.9028437 102.00001 70.0061943 102.003427 71.109545 102.899732 72.0017002 104.003086 71.9999976 105.106441 71.9982949 105.999988 71.1033775 106 70.0000216 106.000006 69.467973 105.788016 68.9578503 105.410929 68.582509 105.033841 68.2071677 104.522741 67.997547 103.990698 68.0000217zM46.9906978 30.0000217C45.8873538 30.0051536 44.9965925 30.9028437 45.0000098 32.0061943 45.0034271 33.109545 45.8997319 34.0017002 47.0030865 33.9999976 48.106441 33.9982949 48.9999881 33.1033775 49 32.0000216 49.0000058 31.467973 48.7880156 30.9578503 48.4109286 30.582509 48.0338415 30.2071677 47.5227406 29.997547 46.9906978 30.0000217zM66 30C64.8954305 30 64 30.8954305 64 32 64 33.1045695 64.8954305 34 66 34 67.1045695 34 68 33.1045695 68 32 68 30.8954305 67.1045695 30 66 30zM47 49C45.8954305 49 45 49.8954305 45 51 45 52.1045695 45.8954305 53 47 53 48.1045695 53 49 52.1045695 49 51 49 49.8954305 48.1045695 49 47 49zM66.0092878 49.0000216C65.1995429 48.9962727 64.4674439 49.4811658 64.1549669 50.2281988 63.8424898 50.9752318 64.0113059 51.8369689 64.5825581 52.4108778 65.1538103 52.9847867 66.0147552 53.1575996 66.7632306 52.8485926 67.511706 52.5395856 67.9999913 51.8097449 68 50.9999918 68.0000118 49.8990446 67.1102239 49.0051186 66.0092878 49.0000216zM46.9906978 68.0000217C45.8873538 68.0051536 44.9965925 68.9028437 45.0000098 70.0061943 45.0034271 71.109545 45.8997319 72.0017002 47.0030865 71.9999976 48.106441 71.9982949 48.9999881 71.1033775 49 70.0000216 49.0000058 69.467973 48.7880156 68.9578503 48.4109286 68.582509 48.0338415 68.2071677 47.5227406 67.997547 46.9906978 68.0000217zM9 30C7.8954305 30 7 30.8954305 7 32 7 33.1045695 7.8954305 34 9 34 10.1045695 34 11 33.1045695 11 32 10.9949078 30.8975467 10.1024533 30.0050922 9 30zM28 30C26.8954305 30 26 30.8954305 26 32 26 33.1045695 26.8954305 34 28 34 29.1045695 34 30 33.1045695 30 32 30 30.8954305 29.1045695 30 28 30zM9.00928784 49.0000216C8.19954293 48.9962727 7.46744392 49.4811658 7.15496688 50.2281988 6.84248984 50.9752318 7.01130586 51.8369689 7.58255809 52.4108778 8.15381031 52.9847867 9.01475522 53.1575996 9.76323063 52.8485926 10.511706 52.5395856 10.9999913 51.8097449 11 50.9999918 11.0000118 49.8990446 10.1102239 49.0051186 9.00928784 49.0000216zM28.0092878 49.0000216C27.1995429 48.9962727 26.4674439 49.4811658 26.1549669 50.2281988 25.8424898 50.9752318 26.0113059 51.8369689 26.5825581 52.4108778 27.1538103 52.9847867 28.0147552 53.1575996 28.7632306 52.8485926 29.511706 52.5395856 29.9999913 51.8097449 30 50.9999918 30.0000118 49.8990446 29.1102239 49.0051186 28.0092878 49.0000216zM9.00002923 68C8.19111656 68 7.46185465 68.4872772 7.15229717 69.2346151 6.84273969 69.9819529 7.0138487 70.842176 7.58583634 71.4141637 8.15782397 71.9861513 9.01804705 72.1572603 9.76538491 71.8477028 10.5127228 71.5381454 11 70.8088834 11 69.9999708 10.9949078 68.8975335 10.1024665 68.0050922 9.00002923 68zM28 68C26.8954305 68 26 68.8954305 26 70 26 71.1045695 26.8954305 72 28 72 29.1045695 72 30 71.1045695 30 70 30 68.8954305 29.1045695 68 28 68zM123.009267 87.0000215C122.198681 86.9962774 121.465999 87.4821769 121.15407 88.2303499 120.84214 88.9785229 121.01266 89.840987 121.585836 90.4141637 122.159013 90.9873404 123.021477 91.15786 123.76965 90.8459303 124.517823 90.5340006 125.003723 89.8013186 124.999979 88.9907331 124.999979 87.8912934 124.108707 87.0000215 123.009267 87.0000215zM142.009267 87.0000215C141.198681 86.9962774 140.465999 87.4821769 140.15407 88.2303499 139.84214 88.9785229 140.01266 89.840987 140.585836 90.4141637 141.159013 90.9873404 142.021477 91.15786 142.76965 90.8459303 143.517823 90.5340006 144.003723 89.8013186 143.999979 88.9907331 143.999979 87.8912934 143.108707 87.0000215 142.009267 87.0000215zM123.009288 106.000022C122.199543 105.996273 121.467444 106.481166 121.154967 107.228199 120.84249 107.975232 121.011306 108.836969 121.582558 109.410878 122.15381 109.984787 123.014755 110.1576 123.763231 109.848593 124.511706 109.539586 124.999991 108.809745 125 107.999992 125.000012 106.899045 124.110224 106.005119 123.009288 106.000022zM142.009288 106.000022C141.199543 105.996273 140.467444 106.481166 140.154967 107.228199 139.84249 107.975232 140.011306 108.836969 140.582558 109.410878 141.15381 109.984787 142.014755 110.1576 142.763231 109.848593 143.511706 109.539586 143.999991 108.809745 144 107.999992 144.000012 106.899045 143.110224 106.005119 142.009288 106.000022zM104.000008 87.0000216C103.190255 87.0000302 102.460414 87.4883129 102.151407 88.2367843 101.8424 88.9852556 102.015213 89.8461959 102.589122 90.4174451 103.163031 90.9886942 104.024768 91.1575093 104.771801 90.845034 105.518834 90.5325586 106.003727 89.8004635 105.999978 88.990723 105.999984 88.461148 105.788979 87.953397 105.413643 87.5798008 105.038307 87.2062046 104.52958 86.9975584 104.000008 87.0000216z"/>
    <circle cx="85" cy="108" r="2" fill="#00E5FF"/>
    <path fill="#00E5FF" d="M104 106C102.895431 106 102 106.895431 102 108 102 109.104569 102.895431 110 104 110 105.104569 110 106 109.104569 106 108 106 106.895431 105.104569 106 104 106zM47.0000082 87.0000216C46.1902551 87.0000302 45.4604144 87.4883129 45.1514074 88.2367843 44.8424004 88.9852556 45.0152133 89.8461959 45.5891222 90.4174451 46.1630311 90.9886942 47.0247682 91.1575093 47.7718012 90.845034 48.5188342 90.5325586 49.0037273 89.8004635 48.9999784 88.990723 48.9999841 88.461148 48.7889786 87.953397 48.4136429 87.5798008 48.0383072 87.2062046 47.5295801 86.9975584 47.0000082 87.0000216zM47 106C45.8954305 106 45 106.895431 45 108 45 109.104569 45.8954305 110 47 110 48.1045695 110 49 109.104569 49 108 49 106.895431 48.1045695 106 47 106zM66.0092878 106.000022C65.1995429 105.996273 64.4674439 106.481166 64.1549669 107.228199 63.8424898 107.975232 64.0113059 108.836969 64.5825581 109.410878 65.1538103 109.984787 66.0147552 110.1576 66.7632306 109.848593 67.511706 109.539586 67.9999913 108.809745 68 107.999992 68.0000118 106.899045 67.1102239 106.005119 66.0092878 106.000022zM9.00926695 87.0000215C8.19868135 86.9962774 7.46599939 87.4821769 7.15406968 88.2303499 6.84213996 88.9785229 7.01265964 89.840987 7.58583632 90.4141637 8.15901301 90.9873404 9.02147705 91.15786 9.76965008 90.8459303 10.5178231 90.5340006 11.0037226 89.8013186 10.9999785 88.9907331 10.9949099 87.8933998 10.1066002 87.0050901 9.00926695 87.0000215zM28.0092669 87.0000215C27.1986814 86.9962774 26.4659994 87.4821769 26.1540697 88.2303499 25.84214 88.9785229 26.0126596 89.840987 26.5858363 90.4141637 27.159013 90.9873404 28.0214771 91.15786 28.7696501 90.8459303 29.5178231 90.5340006 30.0037226 89.8013186 29.9999785 88.9907331 29.9999785 87.8912934 29.1087066 87.0000215 28.0092669 87.0000215zM9.00928784 106.000022C8.19954293 105.996273 7.46744392 106.481166 7.15496688 107.228199 6.84248984 107.975232 7.01130586 108.836969 7.58255809 109.410878 8.15381031 109.984787 9.01475522 110.1576 9.76323063 109.848593 10.511706 109.539586 10.9999913 108.809745 11 107.999992 11.0000118 106.899045 10.1102239 106.005119 9.00928784 106.000022zM28.0092878 106.000022C27.1995429 105.996273 26.4674439 106.481166 26.1549669 107.228199 25.8424898 107.975232 26.0113059 108.836969 26.5825581 109.410878 27.1538103 109.984787 28.0147552 110.1576 28.7632306 109.848593 29.511706 109.539586 29.9999913 108.809745 30 107.999992 30.0000118 106.899045 29.1102239 106.005119 28.0092878 106.000022zM123 125C121.895431 125 121 125.895431 121 127 121 128.104569 121.895431 129 123 129 124.104569 129 125 128.104569 125 127 125 125.895431 124.104569 125 123 125zM142 125C140.895431 125 140 125.895431 140 127 140 128.104569 140.895431 129 142 129 143.104569 129 144 128.104569 144 127 144 125.895431 143.104569 125 142 125zM123.009267 144.000021C122.198681 143.996277 121.465999 144.482177 121.15407 145.23035 120.84214 145.978523 121.01266 146.840987 121.585836 147.414164 122.159013 147.98734 123.021477 148.15786 123.76965 147.84593 124.517823 147.534001 125.003723 146.801319 124.999979 145.990733 124.999979 144.891293 124.108707 144.000021 123.009267 144.000021zM142.009267 144.000021C141.198681 143.996277 140.465999 144.482177 140.15407 145.23035 139.84214 145.978523 140.01266 146.840987 140.585836 147.414164 141.159013 147.98734 142.021477 148.15786 142.76965 147.84593 143.517823 147.534001 144.003723 146.801319 143.999979 145.990733 143.999979 144.891293 143.108707 144.000021 142.009267 144.000021zM85 125C83.8954305 125 83 125.895431 83 127 83 128.104569 83.8954305 129 85 129 86.1045695 129 87 128.104569 87 127 87 126.469567 86.7892863 125.960859 86.4142136 125.585786 86.0391408 125.210714 85.530433 125 85 125zM103.990698 125.000022C102.887354 125.005154 101.996593 125.902844 102.00001 127.006194 102.003427 128.109545 102.899732 129.0017 104.003086 128.999998 105.106441 128.998295 105.999988 128.103378 106 127.000022 106.000006 126.467973 105.788016 125.95785 105.410929 125.582509 105.033841 125.207168 104.522741 124.997547 103.990698 125.000022zM85.0092669 144.000021C84.1986814 143.996277 83.4659994 144.482177 83.1540697 145.23035 82.84214 145.978523 83.0126596 146.840987 83.5858363 147.414164 84.159013 147.98734 85.0214771 148.15786 85.7696501 147.84593 86.5178231 147.534001 87.0037226 146.801319 86.9999785 145.990733 86.9999785 144.891293 86.1087066 144.000021 85.0092669 144.000021zM104.000008 144C103.190255 144.000009 102.460414 144.488294 102.151407 145.236769 101.8424 145.985245 102.015213 146.84619 102.589122 147.417442 103.163031 147.988694 104.024768 148.15751 104.771801 147.845033 105.518834 147.532556 106.003727 146.800457 105.999978 145.990712 105.994881 144.889776 105.100955 143.999988 104.000008 144zM46.9906978 125.000022C45.8873538 125.005154 44.9965925 125.902844 45.0000098 127.006194 45.0034271 128.109545 45.8997319 129.0017 47.0030865 128.999998 48.106441 128.998295 48.9999881 128.103378 49 127.000022 49.0000058 126.467973 48.7880156 125.95785 48.4109286 125.582509 48.0338415 125.207168 47.5227406 124.997547 46.9906978 125.000022zM66 125C64.8954305 125 64 125.895431 64 127 64 128.104569 64.8954305 129 66 129 67.1045695 129 68 128.104569 68 127 68 125.895431 67.1045695 125 66 125zM47.0000082 144.000022C46.1902551 144.00003 45.4604144 144.488313 45.1514074 145.236784 44.8424004 145.985256 45.0152133 146.846196 45.5891222 147.417445 46.1630311 147.988694 47.0247682 148.157509 47.7718012 147.845034 48.5188342 147.532559 49.0037273 146.800464 48.9999784 145.990723 48.9999841 145.461148 48.7889786 144.953397 48.4136429 144.579801 48.0383072 144.206205 47.5295801 143.997558 47.0000082 144.000022zM66.0092669 144.000021C65.1986814 143.996277 64.4659994 144.482177 64.1540697 145.23035 63.84214 145.978523 64.0126596 146.840987 64.5858363 147.414164 65.159013 147.98734 66.0214771 148.15786 66.7696501 147.84593 67.5178231 147.534001 68.0037226 146.801319 67.9999785 145.990733 67.9999785 145.462764 67.7902434 144.956418 67.4169126 144.583087 67.0435818 144.209757 66.5372365 144.000021 66.0092669 144.000021zM9.00002923 125C8.19111656 125 7.46185465 125.487277 7.15229717 126.234615 6.84273969 126.981953 7.0138487 127.842176 7.58583634 128.414164 8.15782397 128.986151 9.01804705 129.15726 9.76538491 128.847703 10.5127228 128.538145 11 127.808883 11 126.999971 10.9949078 125.897534 10.1024665 125.005092 9.00002923 125zM28 125C26.8954305 125 26 125.895431 26 127 26 128.104569 26.8954305 129 28 129 29.1045695 129 30 128.104569 30 127 30 125.895431 29.1045695 125 28 125zM9.00926695 144.000021C8.19868135 143.996277 7.46599939 144.482177 7.15406968 145.23035 6.84213996 145.978523 7.01265964 146.840987 7.58583632 147.414164 8.15901301 147.98734 9.02147705 148.15786 9.76965008 147.84593 10.5178231 147.534001 11.0037226 146.801319 10.9999785 145.990733 10.9949099 144.8934 10.1066002 144.00509 9.00926695 144.000021zM28.0092669 144.000021C27.1986814 143.996277 26.4659994 144.482177 26.1540697 145.23035 25.84214 145.978523 26.0126596 146.840987 26.5858363 147.414164 27.159013 147.98734 28.0214771 148.15786 28.7696501 147.84593 29.5178231 147.534001 30.0037226 146.801319 29.9999785 145.990733 29.9999785 144.891293 29.1087066 144.000021 28.0092669 144.000021z"/>
    <circle cx="12.5" cy="6.5" r="1.5" fill="#20485F"/>
    <circle cx="18.5" cy="6.5" r="1.5" fill="#20485F"/>
    <circle cx="25.5" cy="6.5" r="1.5" fill="#20485F"/>
    <path fill="#294661" d="M72.292506,121.000206 L67.690136,121.000206 C66.7497313,121.024234 65.9997061,121.81019 66.0000001,122.771309 L66.0000001,144.679855 C66.0000001,145.961236 67.0166939,147 68.2708493,147 L71.7377947,147 C72.3392674,147.000005 72.9159796,146.755279 73.340471,146.319911 C73.7649625,145.884543 74.0022811,145.29438 73.9999766,144.679855 L73.9999766,122.727032 C74.0023606,122.265224 73.822668,121.821882 73.5014276,121.497 C73.1801872,121.172118 72.7444541,120.993058 72.292506,121.000206 Z"/>
    <path fill="#294661" d="M69.9958973,57 C55.2827168,57.056275 43.3024831,68.7896122 43.0056224,83.4340418 C42.7087616,98.0784713 54.2037364,110.283428 68.9026573,110.930596 L68.9026573,121 L71.0980254,121 L71.0980254,110.930596 C85.7983893,110.282994 97.2935888,98.0754832 96.9942859,83.4296483 C96.6949829,68.7838133 84.7105551,57.0518461 69.9958973,57 Z"/>
    <rect width="2" height="11" x="74" y="105" fill="#E8F2FC"/>
    <circle cx="76" cy="79" r="26" fill="url(#group-c)"/>
    <path fill="#FF4081" d="M71,117.720914 L71,139.675879 C71,140.959455 72.0155965,142 73.2683983,142 L76.7316017,142 C77.9844035,142 79,140.959455 79,139.675879 L79,117.729785 C78.976508,116.767319 78.2080816,115.999699 77.2683983,116 L72.6450217,116 C71.730927,116.019314 70.9998057,116.784166 71,117.720914 Z"/>
    <path fill="#1A82E2" d="M75.0443258,104.999963 C64.5276753,105.017736 55.0360189,98.6982196 50.995866,88.9885711 C46.9557132,79.2789226 49.1628288,68.0915934 56.587907,60.6438835 C64.0129852,53.1961736 75.1935523,50.9550142 84.9154621,54.9655878 C94.6373718,58.9761613 100.985757,68.448529 100.999998,78.9651768 C101.004899,93.3149427 89.3940511,104.96118 75.0443258,104.999963 Z M75.0443258,55.1021547 C65.3712225,55.0843706 56.6413611,60.8994967 52.9305818,69.8325386 C49.2198025,78.7655806 51.2600203,89.0545831 58.0986883,95.8957665 C64.9373564,102.73695 75.2256142,104.780958 84.1600299,101.073474 C93.0944456,97.3659896 98.912793,88.6382786 98.8985737,78.9651768 C98.8647707,65.8034504 88.206049,55.1408081 75.0443258,55.1021547 Z"/>
    <path fill="#E8F2FC" d="M76.0092455,105.999999 C65.0873142,106.003579 55.2390019,99.4266488 51.0577057,89.3367847 C46.8764094,79.2469206 49.1858184,67.6317627 56.9087905,59.9087905 C64.6317627,52.1858184 76.2469206,49.8764094 86.3367847,54.0577057 C96.4266488,58.2390019 103.003579,68.0873142 102.999999,79.0092455 C102.980491,93.9077392 90.9077392,105.980491 76.0092455,105.999999 Z M76.0092455,54.1961655 C62.3200268,54.1961655 51.2227225,65.2934698 51.2227225,78.9826885 C51.2227225,92.6719071 62.3200268,103.769211 76.0092455,103.769211 C89.6984641,103.769211 100.795768,92.6719071 100.795768,78.9826885 C100.766554,65.3055891 89.6863449,54.2253798 76.0092455,54.1961655 Z"/>
    <path fill="#FFF" d="M95.3870356,79.9999763 C94.5010352,79.9999763 93.78279,79.2817318 93.78279,78.3957323 C93.768384,68.3667982 85.6419088,60.2403314 75.6129644,60.2259254 C74.7221487,60.2259254 74,59.5037774 74,58.6129627 C74,57.722148 74.7221487,57 75.6129644,57 C87.4221231,57.014421 96.9903922,66.5865809 97,78.3957323 C97.0000063,78.8227192 96.8297917,79.2320918 96.527049,79.5331978 C96.2243062,79.8343038 95.8140167,80.0022969 95.3870356,79.9999763 Z"/>
    <path fill="#E8F2FC" d="M76,106.967611 L76,105 C75.6693767,105 75.3360434,105 75,105 C74.6639566,105 74.3306233,105 74,105 L74,107 L75,107 L76,106.967611 Z"/>
    <rect width="151" height="4" y="157" fill="#FFF"/>
    <path fill="#00E5FF" d="M65.0084588 86.0000119C63.7935629 85.996604 62.6965548 86.7262678 62.2300586 87.8480366 61.7635625 88.9698053 62.01969 90.262181 62.8787545 91.1212455 63.737819 91.98031 65.0301947 92.2364375 66.1519634 91.7699414 67.2737322 91.3034452 68.003396 90.2064371 67.9999881 88.9915412 67.9999881 87.3393652 66.6606348 86.0000119 65.0084588 86.0000119zM85.0084588 86.0000119C83.7935629 85.996604 82.6965548 86.7262678 82.2300586 87.8480366 81.7635625 88.9698053 82.01969 90.262181 82.8787545 91.1212455 83.737819 91.98031 85.0301947 92.2364375 86.1519634 91.7699414 87.2737322 91.3034452 88.003396 90.2064371 87.9999881 88.9915412 87.995359 87.3412864 86.6587136 86.004641 85.0084588 86.0000119zM65.0084588 66.0000119C63.7935629 65.996604 62.6965548 66.7262678 62.2300586 67.8480366 61.7635625 68.9698053 62.01969 70.262181 62.8787545 71.1212455 63.737819 71.98031 65.0301947 72.2364375 66.1519634 71.7699414 67.2737322 71.3034452 68.003396 70.2064371 67.9999881 68.9915412 67.9999881 67.3393652 66.6606348 66.0000119 65.0084588 66.0000119zM85 72C86.6568542 72 88 70.6568542 88 69 88 67.3431458 86.6568542 66 85 66 83.3431458 66 82 67.3431458 82 69 82 70.6568542 83.3431458 72 85 72z"/>
    <path fill="#1A82E2" d="M47.0000082 87.0000216C46.1902551 87.0000302 45.4604144 87.4883129 45.1514074 88.2367843 44.8424004 88.9852556 45.0152133 89.8461959 45.5891222 90.4174451 46.1630311 90.9886942 47.0247682 91.1575093 47.7718012 90.845034 48.5188342 90.5325586 49.0037273 89.8004635 48.9999784 88.990723 48.9999841 88.461148 48.7889786 87.953397 48.4136429 87.5798008 48.0383072 87.2062046 47.5295801 86.9975584 47.0000082 87.0000216zM66.0092878 106.000022C65.1995429 105.996273 64.4674439 106.481166 64.1549669 107.228199 63.8424898 107.975232 64.0113059 108.836969 64.5825581 109.410878 65.1538103 109.984787 66.0147552 110.1576 66.7632306 109.848593 67.511706 109.539586 67.9999913 108.809745 68 107.999992 68.0000118 106.899045 67.1102239 106.005119 66.0092878 106.000022zM66.1061947 125.018605L66 125.018605 66 129 66.0973451 129C67.1481524 129 68 128.104569 68 127 68 125.895431 67.1481524 125 66.0973451 125L66.1061947 125.018605zM66.1061673 144.008086L66 144.008086 66 145.051213C66.0019889 145.899014 66.5547288 146.664749 67.4067169 147 67.9716635 146.510296 68.1530369 145.755351 67.8645398 145.094366 67.5760428 144.433382 66.8759323 143.999832 66.09732 144L66.1061673 144.008086zM84.9991881 106C83.8973423 106.004549 83.0068192 106.802446 83.006831 107.785124 82.997723 107.856519 82.997723 107.928605 83.006831 108 84.0435307 107.476797 85.0431432 106.897189 86 106.264463 85.6992396 106.097435 85.3534286 106.006055 84.9991881 106zM46.7090023 70.9998786C47.6181108 71.0081925 48.4454141 70.5887498 48.8099477 69.9346992 49.1744812 69.2806487 49.0055629 68.5188093 48.3809778 68 47.5043419 68.9231224 46.7088395 69.8920873 46 70.9001597 46.228092 70.9627522 46.4674247 70.9964136 46.7090023 70.9998786z"/>
  </g>
</svg>
