<svg width="166" height="198" xmlns="http://www.w3.org/2000/svg"><defs><linearGradient x1="50%" y1="-14.891%" x2="50%" y2="161.792%" id="a"><stop stop-color="#00BCD4" offset="0%"/><stop stop-color="#00E5FF" offset="96%"/></linearGradient><linearGradient x1="50%" y1="-4.012%" x2="50%" y2="183.277%" id="b"><stop stop-color="#E8F2FC" offset="0%"/><stop stop-color="#D1E6F9" offset="84%"/></linearGradient><radialGradient cx="11474%" cy="8304%" fx="11474%" fy="8304%" r="6352%" gradientTransform="matrix(1 0 0 .99825 0 .145)" id="c"><stop stop-color="#00BCD4" offset="0%"/><stop stop-color="#00E5FF" offset="96%"/></radialGradient></defs><g fill-rule="nonzero" fill="none"><rect fill="#76B4EE" y="19.81" width="145.863" height="177.534" rx="4.63"/><path d="M159.004 1.51H22.489c-2.7 0-4.89 2.193-4.89 4.898v168.364c0 2.985 2.193 5.404 4.89 5.404h136.515c2.706 0 4.89-2.419 4.89-5.404V6.408a4.894 4.894 0 0 0-1.43-3.466 4.877 4.877 0 0 0-3.46-1.432z" fill="#FFF"/><rect fill="#E8F2FC" x="19.107" width="146.294" height="26.73" rx="4.63"/><path fill="url(#a)" d="M19.107 20.227h146.294v132.147H19.107z"/><path fill="#A9B5C0" d="M19.107 11.898h146.294v1H19.107z"/><path d="M19.107 174.995c0 2.985 2.183 5.405 4.89 5.405H160.51c2.697 0 4.89-2.42 4.89-5.405v-20.038H19.107v20.038z" fill="url(#b)"/><path d="M138.332 28.694a1.843 1.843 0 0 0-1.84 1.844c0 1.019.823 1.845 1.84 1.845a1.843 1.843 0 0 0 1.841-1.845 1.843 1.843 0 0 0-1.84-1.844zM156.76 32.383a1.843 1.843 0 0 0 1.841-1.845 1.843 1.843 0 0 0-1.84-1.844 1.843 1.843 0 0 0-1.842 1.844c0 1.019.824 1.845 1.841 1.845zM138.332 47.18a1.855 1.855 0 0 0-1.32 3.16 1.847 1.847 0 0 0 3.161-1.307c0-1.02-.823-1.848-1.84-1.853zM156.76 47.18a1.855 1.855 0 0 0-1.32 3.16 1.847 1.847 0 0 0 3.161-1.307c0-1.02-.823-1.848-1.84-1.853zM138.332 65.623a1.843 1.843 0 0 0-1.84 1.845c0 1.018.823 1.844 1.84 1.844a1.843 1.843 0 0 0 1.841-1.844 1.843 1.843 0 0 0-1.84-1.845zM156.76 65.623a1.843 1.843 0 0 0-1.84 1.845c0 1.018.823 1.844 1.84 1.844a1.843 1.843 0 0 0 1.841-1.844 1.843 1.843 0 0 0-1.84-1.845z" fill="#00E5FF"/><ellipse fill="#00E5FF" cx="101.468" cy="30.538" rx="1.841" ry="1.844"/><path d="M119.896 28.694a1.843 1.843 0 0 0-1.833 1.85 1.843 1.843 0 0 0 1.844 1.839 1.843 1.843 0 0 0 1.296-3.152 1.84 1.84 0 0 0-1.307-.537zM101.468 47.18a1.855 1.855 0 0 0-1.32 3.16 1.847 1.847 0 0 0 3.16-1.307c0-1.02-.822-1.848-1.84-1.853zM119.896 47.18c-1.022 0-1.85.83-1.85 1.853 0 1.023.828 1.853 1.85 1.853 1.021 0 1.85-.83 1.85-1.853a1.851 1.851 0 0 0-1.85-1.853zM119.896 65.623a1.843 1.843 0 0 0-1.833 1.85 1.843 1.843 0 0 0 1.844 1.839 1.843 1.843 0 0 0 1.296-3.152 1.84 1.84 0 0 0-1.307-.537zM64.603 28.694a1.843 1.843 0 0 0-1.833 1.85 1.843 1.843 0 0 0 1.844 1.839 1.843 1.843 0 0 0 1.296-3.152 1.84 1.84 0 0 0-1.307-.537zM83.04 28.694a1.843 1.843 0 0 0-1.842 1.844 1.843 1.843 0 0 0 3.682 0 1.843 1.843 0 0 0-1.84-1.844zM64.603 47.18c-1.022 0-1.85.83-1.85 1.853 0 1.023.828 1.853 1.85 1.853 1.021 0 1.85-.83 1.85-1.853a1.851 1.851 0 0 0-1.85-1.853zM83.04 47.18a1.855 1.855 0 0 0-1.32 3.16 1.847 1.847 0 0 0 3.16-1.307c0-1.02-.822-1.848-1.84-1.853zM64.603 65.623a1.843 1.843 0 0 0-1.833 1.85 1.843 1.843 0 0 0 1.844 1.839 1.843 1.843 0 0 0 1.296-3.152 1.84 1.84 0 0 0-1.307-.537zM27.747 28.694a1.843 1.843 0 0 0-1.841 1.844c0 1.019.824 1.845 1.84 1.845a1.843 1.843 0 0 0 1.842-1.845 1.851 1.851 0 0 0-1.841-1.844zM46.175 28.694a1.843 1.843 0 0 0-1.841 1.844c0 1.019.824 1.845 1.84 1.845a1.843 1.843 0 0 0 1.842-1.845 1.843 1.843 0 0 0-1.841-1.844zM27.747 47.18a1.855 1.855 0 0 0-1.32 3.16 1.847 1.847 0 0 0 3.16-1.307c0-1.02-.822-1.848-1.84-1.853zM46.175 47.18a1.855 1.855 0 0 0-1.32 3.16 1.847 1.847 0 0 0 3.161-1.307c0-1.02-.823-1.848-1.841-1.853zM27.747 65.623a1.847 1.847 0 0 0-1.302 3.148 1.839 1.839 0 0 0 3.143-1.303 1.851 1.851 0 0 0-1.841-1.845zM46.175 65.623a1.843 1.843 0 0 0-1.841 1.845c0 1.018.824 1.844 1.84 1.844a1.843 1.843 0 0 0 1.842-1.844 1.843 1.843 0 0 0-1.841-1.845zM138.332 84.066a1.855 1.855 0 0 0-1.316 3.163 1.847 1.847 0 0 0 3.157-1.318 1.843 1.843 0 0 0-1.84-1.845zM156.76 84.066a1.855 1.855 0 0 0-1.316 3.163 1.847 1.847 0 0 0 3.157-1.318 1.843 1.843 0 0 0-1.84-1.845zM138.332 102.544a1.855 1.855 0 0 0-1.32 3.16 1.847 1.847 0 0 0 3.161-1.307c0-1.02-.823-1.848-1.84-1.853zM156.76 102.544a1.855 1.855 0 0 0-1.32 3.16 1.847 1.847 0 0 0 3.161-1.307c0-1.02-.823-1.848-1.84-1.853zM119.896 84.066a1.855 1.855 0 0 0-1.305 3.166 1.847 1.847 0 0 0 3.154-1.321 1.846 1.846 0 0 0-1.85-1.845z" fill="#00E5FF"/><ellipse fill="#00E5FF" cx="101.468" cy="104.397" rx="1.841" ry="1.844"/><path d="M119.896 102.544c-1.022 0-1.85.83-1.85 1.853 0 1.023.828 1.853 1.85 1.853 1.021 0 1.85-.83 1.85-1.853a1.851 1.851 0 0 0-1.85-1.853zM64.603 84.066a1.855 1.855 0 0 0-1.305 3.166 1.847 1.847 0 0 0 3.155-1.321 1.846 1.846 0 0 0-1.85-1.845zM64.603 102.544c-1.022 0-1.85.83-1.85 1.853 0 1.023.828 1.853 1.85 1.853 1.021 0 1.85-.83 1.85-1.853a1.851 1.851 0 0 0-1.85-1.853zM83.04 102.544a1.855 1.855 0 0 0-1.32 3.16 1.847 1.847 0 0 0 3.16-1.307c0-1.02-.822-1.848-1.84-1.853zM27.747 84.066a1.855 1.855 0 0 0-1.316 3.163 1.847 1.847 0 0 0 3.157-1.318 1.851 1.851 0 0 0-1.841-1.845zM46.175 84.066a1.855 1.855 0 0 0-1.316 3.163 1.847 1.847 0 0 0 3.157-1.318 1.843 1.843 0 0 0-1.841-1.845zM27.747 102.544a1.855 1.855 0 0 0-1.32 3.16 1.847 1.847 0 0 0 3.16-1.307c0-1.02-.822-1.848-1.84-1.853zM46.175 102.544a1.855 1.855 0 0 0-1.32 3.16 1.847 1.847 0 0 0 3.161-1.307c0-1.02-.823-1.848-1.841-1.853zM138.332 121.013a1.843 1.843 0 0 0-1.84 1.844c0 1.019.823 1.844 1.84 1.844a1.843 1.843 0 0 0 1.841-1.844 1.843 1.843 0 0 0-1.84-1.844zM156.76 121.013a1.843 1.843 0 0 0-1.84 1.844c0 1.019.823 1.844 1.84 1.844a1.843 1.843 0 0 0 1.841-1.844 1.843 1.843 0 0 0-1.84-1.844zM138.332 139.473a1.855 1.855 0 0 0-1.316 3.163 1.847 1.847 0 0 0 3.157-1.319 1.843 1.843 0 0 0-1.84-1.844zM156.76 139.473a1.855 1.855 0 0 0-1.316 3.163 1.847 1.847 0 0 0 3.157-1.319 1.843 1.843 0 0 0-1.84-1.844zM101.468 121.013a1.843 1.843 0 0 0-1.842 1.844 1.843 1.843 0 1 0 3.143-1.304 1.84 1.84 0 0 0-1.301-.54zM119.896 121.013a1.843 1.843 0 0 0-1.833 1.85 1.843 1.843 0 0 0 1.844 1.838 1.843 1.843 0 0 0 1.296-3.151 1.84 1.84 0 0 0-1.307-.537zM101.468 139.473a1.855 1.855 0 0 0-1.316 3.163 1.847 1.847 0 0 0 3.157-1.319 1.843 1.843 0 0 0-1.841-1.844zM119.896 139.473a1.855 1.855 0 0 0-1.305 3.166 1.847 1.847 0 0 0 3.154-1.322 1.851 1.851 0 0 0-1.85-1.844zM64.603 121.013a1.843 1.843 0 0 0-1.833 1.85 1.843 1.843 0 0 0 1.844 1.838 1.843 1.843 0 0 0 1.296-3.151 1.84 1.84 0 0 0-1.307-.537zM83.04 121.013a1.843 1.843 0 0 0-1.842 1.844 1.843 1.843 0 0 0 3.682 0 1.843 1.843 0 0 0-1.84-1.844zM64.603 139.473a1.855 1.855 0 0 0-1.305 3.166 1.847 1.847 0 0 0 3.155-1.322 1.846 1.846 0 0 0-1.85-1.844zM83.04 139.473a1.855 1.855 0 0 0-1.316 3.163 1.847 1.847 0 0 0 3.157-1.319 1.846 1.846 0 0 0-1.841-1.844zM27.747 121.013c-.745 0-1.416.449-1.701 1.138a1.847 1.847 0 0 0 .399 2.01 1.839 1.839 0 0 0 3.143-1.304 1.851 1.851 0 0 0-1.841-1.844zM46.175 121.013a1.843 1.843 0 0 0-1.841 1.844c0 1.019.824 1.844 1.84 1.844a1.843 1.843 0 0 0 1.842-1.844 1.843 1.843 0 0 0-1.841-1.844zM27.747 139.473a1.855 1.855 0 0 0-1.316 3.163 1.847 1.847 0 0 0 3.157-1.319 1.851 1.851 0 0 0-1.841-1.844zM46.175 139.473a1.855 1.855 0 0 0-1.316 3.163 1.847 1.847 0 0 0 3.157-1.319 1.843 1.843 0 0 0-1.841-1.844z" fill="#00E5FF"/><ellipse fill="#20485F" cx="31.326" cy="6.116" rx="1.524" ry="1.527"/><ellipse fill="#20485F" cx="37.432" cy="6.116" rx="1.524" ry="1.527"/><ellipse fill="#20485F" cx="43.537" cy="6.116" rx="1.524" ry="1.527"/><path d="M89.196 117.701H84.65c-.929.024-1.67.785-1.67 1.716v21.223a2.246 2.246 0 0 0 2.244 2.247h3.425a2.233 2.233 0 0 0 2.235-2.247v-21.266a1.666 1.666 0 0 0-1.687-1.673zM86.902 55.647c-14.176.054-25.718 11.43-26.004 25.627-.286 14.197 10.789 26.03 24.95 26.657v9.762h2.115v-9.762c14.163-.628 25.238-12.463 24.95-26.661-.288-14.2-11.835-25.573-26.011-25.623z" fill="#294661"/><path fill="#E8F2FC" d="M91.2 101.549h2.107v10.791H91.2z"/><ellipse fill="url(#c)" cx="92.254" cy="76.449" rx="25.056" ry="25.1"/><path d="M88.297 114.004v21.231a2.246 2.246 0 0 0 2.244 2.248h3.425a2.246 2.246 0 0 0 2.244-2.248v-21.222a1.714 1.714 0 0 0-1.713-1.673h-4.573a1.663 1.663 0 0 0-1.627 1.664z" fill="#FF4081"/><path d="M91.5 102.604c-10.242.017-19.486-6.148-23.421-15.621a25.398 25.398 0 0 1 5.446-27.654 25.29 25.29 0 0 1 27.589-5.54c9.468 3.913 15.65 13.155 15.665 23.415.004 14-11.304 25.362-25.279 25.4zm0-48.681a23.274 23.274 0 0 0-21.537 14.37 23.345 23.345 0 0 0 5.033 25.429 23.245 23.245 0 0 0 25.382 5.051c8.701-3.617 14.368-12.132 14.354-21.57-.033-12.84-10.414-23.243-23.232-23.28z" fill="#1A82E2"/><path d="M92.254 102.604c-10.566.003-20.092-6.37-24.137-16.147a26.197 26.197 0 0 1 5.66-28.517 26.085 26.085 0 0 1 28.467-5.67c9.76 4.052 16.122 13.595 16.119 24.179-.02 14.437-11.698 26.136-26.11 26.155zm0-50.2c-13.243 0-23.977 10.754-23.977 24.02 0 13.264 10.734 24.018 23.977 24.018 13.242 0 23.977-10.754 23.977-24.019-.029-13.253-10.747-23.99-23.977-24.019z" fill="#E8F2FC"/><path d="M111.675 78.062c-.87 0-1.576-.707-1.576-1.579-.014-9.867-7.995-17.863-17.845-17.877-.875 0-1.585-.71-1.585-1.587 0-.876.71-1.587 1.585-1.587 11.598.015 20.996 9.432 21.005 21.051a1.58 1.58 0 0 1-1.584 1.579z" fill="#FFF"/><path d="M93.307 104.165v-2.084H91.2v2.118h1.054l1.053-.034z" fill="#E8F2FC"/><path fill="#FFF" d="M19.107 152.186h146.294v1.055H19.107z"/><path d="M82.637 83.286a3.048 3.048 0 0 0-2.823 1.881 3.058 3.058 0 0 0 .659 3.332 3.045 3.045 0 0 0 3.326.66 3.054 3.054 0 0 0 1.878-2.828 3.043 3.043 0 0 0-3.04-3.045zM101.87 83.286a3.048 3.048 0 0 0-2.823 1.881 3.058 3.058 0 0 0 .659 3.332 3.045 3.045 0 0 0 3.326.66 3.054 3.054 0 0 0 1.878-2.828 3.051 3.051 0 0 0-3.04-3.045zM82.637 64.02a3.048 3.048 0 0 0-2.823 1.88 3.058 3.058 0 0 0 .659 3.332 3.045 3.045 0 0 0 3.326.66 3.054 3.054 0 0 0 1.878-2.828 3.043 3.043 0 0 0-3.04-3.045zM101.87 70.118a3.051 3.051 0 0 0 3.049-3.054 3.051 3.051 0 0 0-3.049-3.053 3.051 3.051 0 0 0-3.048 3.053 3.051 3.051 0 0 0 3.048 3.054z" fill="#00E5FF"/><path d="M64.603 84.066a1.855 1.855 0 0 0-1.305 3.166 1.847 1.847 0 0 0 3.155-1.321 1.846 1.846 0 0 0-1.85-1.845zM83.04 102.544a1.855 1.855 0 0 0-1.32 3.16 1.847 1.847 0 0 0 3.16-1.307c0-1.02-.822-1.848-1.84-1.853zM83.04 121.013h-.103v3.671h.094a1.843 1.843 0 0 0 1.841-1.844 1.843 1.843 0 0 0-1.841-1.845l.009.018zM83.04 139.473h-.103v1.107c.002.899.537 1.711 1.361 2.067a1.847 1.847 0 0 0-1.267-3.183l.009.009zM101.468 102.544a1.851 1.851 0 0 0-1.842 1.853.988.988 0 0 0 0 .223 26.824 26.824 0 0 0 2.766-1.802 1.813 1.813 0 0 0-.924-.274zM64.603 69.312a1.832 1.832 0 0 0 1.7-1.1 1.838 1.838 0 0 0-.347-1.997 26.169 26.169 0 0 0-1.927 2.994c.185.065.378.1.574.103z" fill="#1A82E2"/></g></svg>