<?xml version="1.0" encoding="UTF-8"?>
<svg width="166px" height="198px" viewBox="0 0 166 198" version="1.1" xmlns="http://www.w3.org/2000/svg" xmlns:xlink="http://www.w3.org/1999/xlink">
    <!-- Generator: Sketch 50 (54983) - http://www.bohemiancoding.com/sketch -->
    <title>Illustration</title>
    <desc>Created with Sketch.</desc>
    <defs>
        <linearGradient x1="50%" y1="-14.8912691%" x2="50%" y2="161.791626%" id="linearGradient-1">
            <stop stop-color="#00BCD4" offset="0%"></stop>
            <stop stop-color="#00E5FF" offset="96%"></stop>
        </linearGradient>
        <linearGradient x1="50%" y1="-4.01213756%" x2="50%" y2="183.277141%" id="linearGradient-2">
            <stop stop-color="#E8F2FC" offset="0%"></stop>
            <stop stop-color="#D1E6F9" offset="84%"></stop>
        </linearGradient>
        <radialGradient cx="11474%" cy="8304%" fx="11474%" fy="8304%" r="6352%" gradientTransform="translate(114.740000,83.040000),scale(1.000000,0.998254),translate(-114.740000,-83.040000)" id="radialGradient-3">
            <stop stop-color="#00BCD4" offset="0%"></stop>
            <stop stop-color="#00E5FF" offset="96%"></stop>
        </radialGradient>
    </defs>
    <g id="UI" stroke="none" stroke-width="1" fill="none" fill-rule="evenodd">
        <g id="Home" transform="translate(-841.000000, -1865.000000)" fill-rule="nonzero">
            <g id="GLossary" transform="translate(436.000000, 1773.000000)">
                <g id="Illustration" transform="translate(405.000000, 92.000000)">
                    <rect id="Rectangle-path" fill="#76B4EE" x="0" y="19.8097619" width="145.863392" height="177.533905" rx="4.63"></rect>
                    <path d="M159.003851,1.50976303 L22.489023,1.50976303 C19.7885727,1.50976303 17.5994253,3.70274023 17.5994253,6.40791469 L17.5994253,174.772227 C17.5994253,177.757441 19.7916092,180.176493 22.489023,180.176493 L159.003851,180.176493 C161.709828,180.176493 163.893448,177.757441 163.893448,174.772227 L163.893448,6.40791469 C163.895727,5.10814578 163.381306,3.86095523 162.463834,2.9418784 C161.546362,2.02280157 160.30135,1.50748073 159.003851,1.50976303 Z" id="Shape" fill="#FFFFFF"></path>
                    <rect id="Rectangle-path" fill="#E8F2FC" x="19.1065517" y="0" width="146.294023" height="26.7296682" rx="4.63"></rect>
                    <rect id="Rectangle-path" fill="url(#linearGradient-1)" x="19.1065517" y="20.2273934" width="146.294023" height="132.147156"></rect>
                    <rect id="Rectangle-path" fill="#A9B5C0" x="19.1065517" y="11.8979621" width="146.294023" height="1"></rect>
                    <path d="M19.1065517,174.995261 C19.1065517,177.980474 21.2901724,180.399526 23.9961494,180.399526 L160.510977,180.399526 C163.208391,180.399526 165.400575,177.980474 165.400575,174.995261 L165.400575,154.956588 L19.1065517,154.956588 L19.1065517,174.995261 Z" id="Shape" fill="url(#linearGradient-2)"></path>
                    <path d="M138.332241,28.6940758 C137.315434,28.6940758 136.491149,29.5198028 136.491149,30.5383886 C136.491149,31.5569745 137.315434,32.3827014 138.332241,32.3827014 C139.349048,32.3827014 140.173333,31.5569745 140.173333,30.5383886 C140.173333,29.5198028 139.349048,28.6940758 138.332241,28.6940758 Z" id="Shape" fill="#00E5FF"></path>
                    <path d="M156.760287,32.3827014 C157.777094,32.3827014 158.601379,31.5569745 158.601379,30.5383886 C158.601379,29.5198028 157.777094,28.6940758 156.760287,28.6940758 C155.74348,28.6940758 154.919195,29.5198028 154.919195,30.5383886 C154.919195,31.5569745 155.74348,32.3827014 156.760287,32.3827014 Z" id="Shape" fill="#00E5FF"></path>
                    <path d="M138.332241,47.1800948 C137.583356,47.1766216 136.906281,47.6258553 136.61729,48.317951 C136.328298,49.0100467 136.484426,49.8084111 137.012743,50.3401143 C137.541061,50.8718175 138.337298,51.0319216 139.029518,50.7456392 C139.721739,50.4593568 140.173325,49.7831891 140.173333,49.0329858 C140.173344,48.013003 139.350432,47.1848169 138.332241,47.1800948 Z" id="Shape" fill="#00E5FF"></path>
                    <path d="M156.760287,47.1800948 C156.011402,47.1766216 155.334327,47.6258553 155.045336,48.317951 C154.756344,49.0100467 154.912472,49.8084111 155.440789,50.3401143 C155.969107,50.8718175 156.765344,51.0319216 157.457564,50.7456392 C158.149785,50.4593568 158.601371,49.7831891 158.601379,49.0329858 C158.60139,48.013003 157.778478,47.1848169 156.760287,47.1800948 Z" id="Shape" fill="#00E5FF"></path>
                    <path d="M138.332241,65.6232227 C137.315434,65.6232227 136.491149,66.4489497 136.491149,67.4675355 C136.491149,68.4861214 137.315434,69.3118483 138.332241,69.3118483 C139.349048,69.3118483 140.173333,68.4861214 140.173333,67.4675355 C140.173333,66.4489497 139.349048,65.6232227 138.332241,65.6232227 Z" id="Shape" fill="#00E5FF"></path>
                    <path d="M156.760287,65.6232227 C155.74348,65.6232227 154.919195,66.4489497 154.919195,67.4675355 C154.919195,68.4861214 155.74348,69.3118483 156.760287,69.3118483 C157.777094,69.3118483 158.601379,68.4861214 158.601379,67.4675355 C158.601379,66.4489497 157.777094,65.6232227 156.760287,65.6232227 Z" id="Shape" fill="#00E5FF"></path>
                    <ellipse id="Oval" fill="#00E5FF" cx="101.467586" cy="30.5383886" rx="1.84109195" ry="1.8443128"></ellipse>
                    <path d="M119.895632,28.6940758 C118.879953,28.6988082 118.059967,29.526619 118.063112,30.5440808 C118.066258,31.5615427 118.891348,32.3842494 119.907037,32.3826793 C120.922725,32.3811091 121.745276,31.5558554 121.745287,30.5383886 C121.745293,30.0477566 121.550146,29.5773437 121.20302,29.2312203 C120.855894,28.8850969 120.385402,28.6917938 119.895632,28.6940758 Z" id="Shape" fill="#00E5FF"></path>
                    <path d="M101.467586,47.1800948 C100.718701,47.1766216 100.041626,47.6258553 99.7526344,48.317951 C99.4636429,49.0100467 99.6197708,49.8084111 100.148088,50.3401143 C100.676406,50.8718175 101.472643,51.0319216 102.164863,50.7456392 C102.857084,50.4593568 103.30867,49.7831891 103.308678,49.0329858 C103.308689,48.013003 102.485777,47.1848169 101.467586,47.1800948 Z" id="Shape" fill="#00E5FF"></path>
                    <path d="M119.895632,47.1800948 C118.874096,47.1800948 118.045977,48.0096623 118.045977,49.0329858 C118.045977,50.0563092 118.874096,50.8858768 119.895632,50.8858768 C120.917169,50.8858768 121.745287,50.0563092 121.745287,49.0329858 C121.745287,48.0096623 120.917169,47.1800948 119.895632,47.1800948 Z" id="Shape" fill="#00E5FF"></path>
                    <path d="M119.895632,65.6232227 C118.879953,65.6279552 118.059967,66.4557659 118.063112,67.4732278 C118.066258,68.4906896 118.891348,69.3133963 119.907037,69.3118262 C120.922725,69.3102561 121.745276,68.4850023 121.745287,67.4675355 C121.745293,66.9769035 121.550146,66.5064906 121.20302,66.1603672 C120.855894,65.8142438 120.385402,65.6209407 119.895632,65.6232227 Z" id="Shape" fill="#00E5FF"></path>
                    <path d="M64.602931,28.6940758 C63.5872521,28.6988082 62.7672654,29.526619 62.7704111,30.5440808 C62.7735569,31.5615427 63.5986467,32.3842494 64.6143354,32.3826793 C65.6300241,32.3811091 66.4525752,31.5558554 66.4525862,30.5383886 C66.4525915,30.0477566 66.2574448,29.5773437 65.9103188,29.2312203 C65.5631928,28.8850969 65.092701,28.6917938 64.602931,28.6940758 Z" id="Shape" fill="#00E5FF"></path>
                    <path d="M83.0395402,28.6940758 C82.0227332,28.6940758 81.1984483,29.5198028 81.1984483,30.5383886 C81.1984483,31.5569745 82.0227332,32.3827014 83.0395402,32.3827014 C84.0563472,32.3827014 84.8806322,31.5569745 84.8806322,30.5383886 C84.8806322,29.5198028 84.0563472,28.6940758 83.0395402,28.6940758 Z" id="Shape" fill="#00E5FF"></path>
                    <path d="M64.602931,47.1800948 C63.5813947,47.1800948 62.7532759,48.0096623 62.7532759,49.0329858 C62.7532759,50.0563092 63.5813947,50.8858768 64.602931,50.8858768 C65.6244674,50.8858768 66.4525862,50.0563092 66.4525862,49.0329858 C66.4525862,48.0096623 65.6244674,47.1800948 64.602931,47.1800948 Z" id="Shape" fill="#00E5FF"></path>
                    <path d="M83.0395402,47.1800948 C82.290655,47.1766216 81.61358,47.6258553 81.3245884,48.317951 C81.0355969,49.0100467 81.1917248,49.8084111 81.7200422,50.3401143 C82.2483596,50.8718175 83.0445967,51.0319216 83.7368173,50.7456392 C84.429038,50.4593568 84.8806242,49.7831891 84.8806322,49.0329858 C84.8806431,48.013003 84.0577308,47.1848169 83.0395402,47.1800948 Z" id="Shape" fill="#00E5FF"></path>
                    <path d="M64.602931,65.6232227 C63.5872521,65.6279552 62.7672654,66.4557659 62.7704111,67.4732278 C62.7735569,68.4906896 63.5986467,69.3133963 64.6143354,69.3118262 C65.6300241,69.3102561 66.4525752,68.4850023 66.4525862,67.4675355 C66.4525915,66.9769035 66.2574448,66.5064906 65.9103188,66.1603672 C65.5631928,65.8142438 65.092701,65.6209407 64.602931,65.6232227 Z" id="Shape" fill="#00E5FF"></path>
                    <path d="M27.7468391,28.6940758 C26.7300321,28.6940758 25.9057471,29.5198028 25.9057471,30.5383886 C25.9057471,31.5569745 26.7300321,32.3827014 27.7468391,32.3827014 C28.7636461,32.3827014 29.587931,31.5569745 29.587931,30.5383886 C29.5832434,29.5217542 28.7616981,28.6987717 27.7468391,28.6940758 Z" id="Shape" fill="#00E5FF"></path>
                    <path d="M46.1748851,28.6940758 C45.158078,28.6940758 44.3337931,29.5198028 44.3337931,30.5383886 C44.3337931,31.5569745 45.158078,32.3827014 46.1748851,32.3827014 C47.1916921,32.3827014 48.015977,31.5569745 48.015977,30.5383886 C48.015977,29.5198028 47.1916921,28.6940758 46.1748851,28.6940758 Z" id="Shape" fill="#00E5FF"></path>
                    <path d="M27.7468391,47.1800948 C26.9979539,47.1766216 26.3208788,47.6258553 26.0318873,48.317951 C25.7428957,49.0100467 25.8990237,49.8084111 26.4273411,50.3401143 C26.9556585,50.8718175 27.7518955,51.0319216 28.4441162,50.7456392 C29.1363368,50.4593568 29.587923,49.7831891 29.587931,49.0329858 C29.5879419,48.013003 28.7650297,47.1848169 27.7468391,47.1800948 Z" id="Shape" fill="#00E5FF"></path>
                    <path d="M46.1748851,47.1800948 C45.4259999,47.1766216 44.7489248,47.6258553 44.4599333,48.317951 C44.1709417,49.0100467 44.3270697,49.8084111 44.8553871,50.3401143 C45.3837045,50.8718175 46.1799415,51.0319216 46.8721622,50.7456392 C47.5643828,50.4593568 48.015969,49.7831891 48.015977,49.0329858 C48.0159879,48.013003 47.1930757,47.1848169 46.1748851,47.1800948 Z" id="Shape" fill="#00E5FF"></path>
                    <path d="M27.7468391,65.6232227 C27.0021869,65.6232227 26.330858,66.0725751 26.0458919,66.7617476 C25.7609259,67.4509201 25.9184419,68.2441919 26.4449905,68.7716616 C26.9715391,69.2991314 27.7634256,69.456923 28.4513945,69.1714584 C29.1393634,68.8859938 29.587931,68.2134904 29.587931,67.4675355 C29.5832434,66.4509011 28.7616981,65.6279186 27.7468391,65.6232227 Z" id="Shape" fill="#00E5FF"></path>
                    <path d="M46.1748851,65.6232227 C45.158078,65.6232227 44.3337931,66.4489497 44.3337931,67.4675355 C44.3337931,68.4861214 45.158078,69.3118483 46.1748851,69.3118483 C47.1916921,69.3118483 48.015977,68.4861214 48.015977,67.4675355 C48.015977,66.4489497 47.1916921,65.6232227 46.1748851,65.6232227 Z" id="Shape" fill="#00E5FF"></path>
                    <path d="M138.332241,84.0663507 C137.582578,84.062882 136.904964,84.513048 136.616479,85.2061997 C136.327993,85.8993513 136.485697,86.698389 137.015794,87.2294137 C137.545892,87.7604385 138.343534,87.918418 139.035475,87.6294279 C139.727416,87.3404377 140.176796,86.6616379 140.173333,85.9106635 C140.173333,84.8920777 139.349048,84.0663507 138.332241,84.0663507 Z" id="Shape" fill="#00E5FF"></path>
                    <path d="M156.760287,84.0663507 C156.010624,84.062882 155.33301,84.513048 155.044525,85.2061997 C154.756039,85.8993513 154.913743,86.698389 155.44384,87.2294137 C155.973938,87.7604385 156.77158,87.918418 157.463521,87.6294279 C158.155462,87.3404377 158.604842,86.6616379 158.601379,85.9106635 C158.601379,84.8920777 157.777094,84.0663507 156.760287,84.0663507 Z" id="Shape" fill="#00E5FF"></path>
                    <path d="M138.332241,102.543791 C137.583356,102.540318 136.906281,102.989552 136.61729,103.681648 C136.328298,104.373743 136.484426,105.172108 137.012743,105.703811 C137.541061,106.235514 138.337298,106.395618 139.029518,106.109336 C139.721739,105.823053 140.173325,105.146886 140.173333,104.396682 C140.173344,103.3767 139.350432,102.548514 138.332241,102.543791 Z" id="Shape" fill="#00E5FF"></path>
                    <path d="M156.760287,102.543791 C156.011402,102.540318 155.334327,102.989552 155.045336,103.681648 C154.756344,104.373743 154.912472,105.172108 155.440789,105.703811 C155.969107,106.235514 156.765344,106.395618 157.457564,106.109336 C158.149785,105.823053 158.601371,105.146886 158.601379,104.396682 C158.60139,103.3767 157.778478,102.548514 156.760287,102.543791 Z" id="Shape" fill="#00E5FF"></path>
                    <path d="M119.895632,84.0663507 C119.146739,84.0663588 118.471752,84.5187349 118.18597,85.2121666 C117.900187,85.9055982 118.060012,86.7032282 118.590786,87.2324698 C119.121561,87.7617115 119.918531,87.9181126 120.609418,87.6286155 C121.300305,87.3391184 121.748754,86.6608588 121.745287,85.9106635 C121.745293,85.4200314 121.550146,84.9496186 121.20302,84.6034952 C120.855894,84.2573718 120.385402,84.0640687 119.895632,84.0663507 Z" id="Shape" fill="#00E5FF"></path>
                    <ellipse id="Oval" fill="#00E5FF" cx="101.467586" cy="104.396682" rx="1.84109195" ry="1.8443128"></ellipse>
                    <path d="M119.895632,102.543791 C118.874096,102.543791 118.045977,103.373359 118.045977,104.396682 C118.045977,105.420006 118.874096,106.249573 119.895632,106.249573 C120.917169,106.249573 121.745287,105.420006 121.745287,104.396682 C121.745287,103.373359 120.917169,102.543791 119.895632,102.543791 Z" id="Shape" fill="#00E5FF"></path>
                    <path d="M64.602931,84.0663507 C63.8540378,84.0663588 63.179051,84.5187349 62.8932685,85.2121666 C62.607486,85.9055982 62.7673105,86.7032282 63.2980852,87.2324698 C63.8288599,87.7617115 64.62583,87.9181126 65.3167171,87.6286155 C66.0076042,87.3391184 66.4560533,86.6608588 66.4525862,85.9106635 C66.4525915,85.4200314 66.2574448,84.9496186 65.9103188,84.6034952 C65.5631928,84.2573718 65.092701,84.0640687 64.602931,84.0663507 Z" id="Shape" fill="#00E5FF"></path>
                    <path d="M64.602931,102.543791 C63.5813947,102.543791 62.7532759,103.373359 62.7532759,104.396682 C62.7532759,105.420006 63.5813947,106.249573 64.602931,106.249573 C65.6244674,106.249573 66.4525862,105.420006 66.4525862,104.396682 C66.4525862,103.373359 65.6244674,102.543791 64.602931,102.543791 Z" id="Shape" fill="#00E5FF"></path>
                    <path d="M83.0395402,102.543791 C82.290655,102.540318 81.61358,102.989552 81.3245884,103.681648 C81.0355969,104.373743 81.1917248,105.172108 81.7200422,105.703811 C82.2483596,106.235514 83.0445967,106.395618 83.7368173,106.109336 C84.429038,105.823053 84.8806242,105.146886 84.8806322,104.396682 C84.8806431,103.3767 84.0577308,102.548514 83.0395402,102.543791 Z" id="Shape" fill="#00E5FF"></path>
                    <path d="M27.7468391,84.0663507 C26.9971762,84.062882 26.3195618,84.513048 26.0310763,85.2061997 C25.7425909,85.8993513 25.9002945,86.698389 26.4303919,87.2294137 C26.9604893,87.7604385 27.7581315,87.918418 28.4500727,87.6294279 C29.1420139,87.3404377 29.5913937,86.6616379 29.587931,85.9106635 C29.5832434,84.8940291 28.7616981,84.0710466 27.7468391,84.0663507 Z" id="Shape" fill="#00E5FF"></path>
                    <path d="M46.1748851,84.0663507 C45.4252222,84.062882 44.7476077,84.513048 44.4591223,85.2061997 C44.1706369,85.8993513 44.3283405,86.698389 44.8584379,87.2294137 C45.3885352,87.7604385 46.1861775,87.918418 46.8781187,87.6294279 C47.5700599,87.3404377 48.0194397,86.6616379 48.015977,85.9106635 C48.015977,84.8920777 47.1916921,84.0663507 46.1748851,84.0663507 Z" id="Shape" fill="#00E5FF"></path>
                    <path d="M27.7468391,102.543791 C26.9979539,102.540318 26.3208788,102.989552 26.0318873,103.681648 C25.7428957,104.373743 25.8990237,105.172108 26.4273411,105.703811 C26.9556585,106.235514 27.7518955,106.395618 28.4441162,106.109336 C29.1363368,105.823053 29.587923,105.146886 29.587931,104.396682 C29.5879419,103.3767 28.7650297,102.548514 27.7468391,102.543791 Z" id="Shape" fill="#00E5FF"></path>
                    <path d="M46.1748851,102.543791 C45.4259999,102.540318 44.7489248,102.989552 44.4599333,103.681648 C44.1709417,104.373743 44.3270697,105.172108 44.8553871,105.703811 C45.3837045,106.235514 46.1799415,106.395618 46.8721622,106.109336 C47.5643828,105.823053 48.015969,105.146886 48.015977,104.396682 C48.0159879,103.3767 47.1930757,102.548514 46.1748851,102.543791 Z" id="Shape" fill="#00E5FF"></path>
                    <path d="M138.332241,121.012654 C137.315434,121.012654 136.491149,121.838381 136.491149,122.856967 C136.491149,123.875553 137.315434,124.70128 138.332241,124.70128 C139.349048,124.70128 140.173333,123.875553 140.173333,122.856967 C140.173333,121.838381 139.349048,121.012654 138.332241,121.012654 Z" id="Shape" fill="#00E5FF"></path>
                    <path d="M156.760287,121.012654 C155.74348,121.012654 154.919195,121.838381 154.919195,122.856967 C154.919195,123.875553 155.74348,124.70128 156.760287,124.70128 C157.777094,124.70128 158.601379,123.875553 158.601379,122.856967 C158.601379,121.838381 157.777094,121.012654 156.760287,121.012654 Z" id="Shape" fill="#00E5FF"></path>
                    <path d="M138.332241,139.472938 C137.582578,139.46947 136.904964,139.919636 136.616479,140.612787 C136.327993,141.305939 136.485697,142.104977 137.015794,142.636001 C137.545892,143.167026 138.343534,143.325006 139.035475,143.036016 C139.727416,142.747025 140.176796,142.068226 140.173333,141.317251 C140.173333,140.298665 139.349048,139.472938 138.332241,139.472938 Z" id="Shape" fill="#00E5FF"></path>
                    <path d="M156.760287,139.472938 C156.010624,139.46947 155.33301,139.919636 155.044525,140.612787 C154.756039,141.305939 154.913743,142.104977 155.44384,142.636001 C155.973938,143.167026 156.77158,143.325006 157.463521,143.036016 C158.155462,142.747025 158.604842,142.068226 158.601379,141.317251 C158.601379,140.298665 157.777094,139.472938 156.760287,139.472938 Z" id="Shape" fill="#00E5FF"></path>
                    <path d="M101.467586,121.012654 C100.450779,121.012654 99.6264943,121.838381 99.6264943,122.856967 C99.6264943,123.875553 100.450779,124.70128 101.467586,124.70128 C102.484393,124.70128 103.308678,123.875553 103.308678,122.856967 C103.308678,122.367825 103.114707,121.898716 102.769435,121.552841 C102.424163,121.206965 101.955874,121.012654 101.467586,121.012654 Z" id="Shape" fill="#00E5FF"></path>
                    <path d="M119.895632,121.012654 C118.879953,121.017386 118.059967,121.845197 118.063112,122.862659 C118.066258,123.880121 118.891348,124.702828 119.907037,124.701257 C120.922725,124.699687 121.745276,123.874434 121.745287,122.856967 C121.745293,122.366335 121.550146,121.895922 121.20302,121.549798 C120.855894,121.203675 120.385402,121.010372 119.895632,121.012654 Z" id="Shape" fill="#00E5FF"></path>
                    <path d="M101.467586,139.472938 C100.717923,139.46947 100.040309,139.919636 99.7518235,140.612787 C99.463338,141.305939 99.6210416,142.104977 100.151139,142.636001 C100.681236,143.167026 101.478879,143.325006 102.17082,143.036016 C102.862761,142.747025 103.312141,142.068226 103.308678,141.317251 C103.308678,140.298665 102.484393,139.472938 101.467586,139.472938 Z" id="Shape" fill="#00E5FF"></path>
                    <path d="M119.895632,139.472938 C119.146739,139.472946 118.471752,139.925323 118.18597,140.618754 C117.900187,141.312186 118.060012,142.109816 118.590786,142.639058 C119.121561,143.168299 119.918531,143.3247 120.609418,143.035203 C121.300305,142.745706 121.748754,142.067446 121.745287,141.317251 C121.740573,140.297279 120.913834,139.472927 119.895632,139.472938 Z" id="Shape" fill="#00E5FF"></path>
                    <path d="M64.602931,121.012654 C63.5872521,121.017386 62.7672654,121.845197 62.7704111,122.862659 C62.7735569,123.880121 63.5986467,124.702828 64.6143354,124.701257 C65.6300241,124.699687 66.4525752,123.874434 66.4525862,122.856967 C66.4525915,122.366335 66.2574448,121.895922 65.9103188,121.549798 C65.5631928,121.203675 65.092701,121.010372 64.602931,121.012654 Z" id="Shape" fill="#00E5FF"></path>
                    <path d="M83.0395402,121.012654 C82.0227332,121.012654 81.1984483,121.838381 81.1984483,122.856967 C81.1984483,123.875553 82.0227332,124.70128 83.0395402,124.70128 C84.0563472,124.70128 84.8806322,123.875553 84.8806322,122.856967 C84.8806322,121.838381 84.0563472,121.012654 83.0395402,121.012654 Z" id="Shape" fill="#00E5FF"></path>
                    <path d="M64.602931,139.472938 C63.8540378,139.472946 63.179051,139.925323 62.8932685,140.618754 C62.607486,141.312186 62.7673105,142.109816 63.2980852,142.639058 C63.8288599,143.168299 64.62583,143.3247 65.3167171,143.035203 C66.0076042,142.745706 66.4560533,142.067446 66.4525862,141.317251 C66.4525915,140.826619 66.2574448,140.356206 65.9103188,140.010083 C65.5631928,139.663959 65.092701,139.470656 64.602931,139.472938 Z" id="Shape" fill="#00E5FF"></path>
                    <path d="M83.0395402,139.472938 C82.2898773,139.46947 81.6122629,139.919636 81.3237775,140.612787 C81.035292,141.305939 81.1929956,142.104977 81.723093,142.636001 C82.2531904,143.167026 83.0508326,143.325006 83.7427738,143.036016 C84.434715,142.747025 84.8840949,142.068226 84.8806322,141.317251 C84.8806322,140.828109 84.6866606,140.359001 84.3413888,140.013125 C83.9961171,139.667249 83.5278282,139.472938 83.0395402,139.472938 Z" id="Shape" fill="#00E5FF"></path>
                    <path d="M27.7468391,121.012654 C27.0021869,121.012654 26.330858,121.462006 26.0458919,122.151179 C25.7609259,122.840351 25.9184419,123.633623 26.4449905,124.161093 C26.9715391,124.688563 27.7634256,124.846354 28.4513945,124.56089 C29.1393634,124.275425 29.587931,123.602922 29.587931,122.856967 C29.5832434,121.840332 28.7616981,121.01735 27.7468391,121.012654 Z" id="Shape" fill="#00E5FF"></path>
                    <path d="M46.1748851,121.012654 C45.158078,121.012654 44.3337931,121.838381 44.3337931,122.856967 C44.3337931,123.875553 45.158078,124.70128 46.1748851,124.70128 C47.1916921,124.70128 48.015977,123.875553 48.015977,122.856967 C48.015977,121.838381 47.1916921,121.012654 46.1748851,121.012654 Z" id="Shape" fill="#00E5FF"></path>
                    <path d="M27.7468391,139.472938 C26.9971762,139.46947 26.3195618,139.919636 26.0310763,140.612787 C25.7425909,141.305939 25.9002945,142.104977 26.4303919,142.636001 C26.9604893,143.167026 27.7581315,143.325006 28.4500727,143.036016 C29.1420139,142.747025 29.5913937,142.068226 29.587931,141.317251 C29.5832434,140.300617 28.7616981,139.477634 27.7468391,139.472938 Z" id="Shape" fill="#00E5FF"></path>
                    <path d="M46.1748851,139.472938 C45.4252222,139.46947 44.7476077,139.919636 44.4591223,140.612787 C44.1706369,141.305939 44.3283405,142.104977 44.8584379,142.636001 C45.3885352,143.167026 46.1861775,143.325006 46.8781187,143.036016 C47.5700599,142.747025 48.0194397,142.068226 48.015977,141.317251 C48.015977,140.298665 47.1916921,139.472938 46.1748851,139.472938 Z" id="Shape" fill="#00E5FF"></path>
                    <ellipse id="Oval" fill="#20485F" cx="31.3262644" cy="6.11625592" rx="1.52425287" ry="1.52691943"></ellipse>
                    <ellipse id="Oval" fill="#20485F" cx="37.4318391" cy="6.11625592" rx="1.52425287" ry="1.52691943"></ellipse>
                    <ellipse id="Oval" fill="#20485F" cx="43.5374138" cy="6.11625592" rx="1.52425287" ry="1.52691943"></ellipse>
                    <path d="M89.1964943,117.701469 L84.6494253,117.701469 C83.7203203,117.724745 82.9793072,118.486088 82.9795977,119.417109 L82.9795977,140.639573 C82.9795977,141.880827 83.9840752,142.887062 85.2231609,142.887062 L88.6484483,142.887062 C89.2426938,142.887066 89.8124764,142.650004 90.2318672,142.22827 C90.651258,141.806536 90.8857251,141.234854 90.8834483,140.639573 L90.8834483,119.374218 C90.8858037,118.926872 90.7082702,118.497414 90.3908898,118.182706 C90.0735093,117.867998 89.6430119,117.694545 89.1964943,117.701469 Z" id="Shape" fill="#294661"></path>
                    <path d="M86.9015517,55.6467773 C72.7262217,55.7013342 61.1839337,67.0764588 60.8979249,81.2738017 C60.6119161,95.4711445 71.6866842,107.303491 85.8482759,107.9309 L85.8482759,117.692891 L87.9633908,117.692891 L87.9633908,107.9309 C102.126373,107.30307 113.201357,95.4682476 112.912996,81.2695423 C112.624634,67.070837 101.078305,55.6970405 86.9015517,55.6467773 Z" id="Shape" fill="#294661"></path>
                    <rect id="Rectangle-path" fill="#E8F2FC" x="91.2002874" y="101.54872" width="2.10655172" height="10.7913744"></rect>
                    <ellipse id="Oval" fill="url(#radialGradient-3)" cx="92.2535632" cy="76.44891" rx="25.055977" ry="25.0998104"></ellipse>
                    <path d="M88.2973563,114.004265 L88.2973563,135.235308 C88.2973563,136.476561 89.3018338,137.482796 90.5409195,137.482796 L93.9662069,137.482796 C95.2052926,137.482796 96.2097701,136.476561 96.2097701,135.235308 L96.2097701,114.012844 C96.1865353,113.082113 95.4265219,112.339804 94.4971264,112.340095 L89.9243678,112.340095 C89.0202809,112.358772 88.2971641,113.098404 88.2973563,114.004265 Z" id="Shape" fill="#FF4081"></path>
                    <path d="M91.5,102.603839 C81.2576756,102.621179 72.0136084,96.4557348 68.0788427,86.9828114 C64.1440769,77.509888 66.2936201,66.5953103 73.5250156,59.3291786 C80.7564112,52.0630468 91.645334,49.8765277 101.113648,53.7893219 C110.581963,57.7021161 116.764751,66.9435437 116.778621,77.2037915 C116.783393,91.2037044 105.475414,102.566002 91.5,102.603839 Z M91.5,53.9225592 C82.0792189,53.9052087 73.5770754,59.5785598 69.9630915,68.2938106 C66.3491077,77.0090614 68.3361065,87.047214 74.9963883,93.7216067 C81.6566702,100.395999 91.6765595,102.390174 100.377922,98.7730794 C109.079284,95.1559852 114.74586,86.6410592 114.732011,77.2037915 C114.69909,64.3629531 104.318401,53.9602703 91.5,53.9225592 Z" id="Shape" fill="#1A82E2"></path>
                    <path d="M92.2535632,102.603839 C81.688335,102.607308 72.1616621,96.2340464 68.1169242,86.4566357 C64.0721864,76.6792249 66.3061716,65.4237543 73.7769165,57.9399399 C81.2476615,50.4561255 92.483476,48.218232 102.243812,52.2700459 C112.004148,56.3218597 118.36628,65.8651987 118.362816,76.44891 C118.343946,90.8860412 106.665482,102.584936 92.2535632,102.603839 Z M92.2535632,52.404218 C79.0114254,52.404218 68.2765517,63.1578715 68.2765517,76.4231754 C68.2765517,89.6884792 79.0114254,100.442133 92.2535632,100.442133 C105.495701,100.442133 116.230575,89.6884792 116.230575,76.4231754 C116.202315,63.1696154 105.483978,52.4325276 92.2535632,52.404218 Z" id="Shape" fill="#E8F2FC"></path>
                    <path d="M111.674943,78.0616114 C110.804745,78.0616114 110.09931,77.3549427 110.09931,76.4832227 C110.085161,66.6159235 102.103631,58.6204297 92.2535632,58.6062559 C91.3786363,58.6062559 90.6693678,57.8957467 90.6693678,57.0192891 C90.6693678,56.1428315 91.3786363,55.4323223 92.2535632,55.4323223 C103.852093,55.4465108 113.249702,64.8643977 113.259138,76.4832227 C113.259144,76.903328 113.091966,77.3061028 112.794623,77.6023559 C112.49728,77.898609 112.094308,78.0638946 111.674943,78.0616114 Z" id="Shape" fill="#FFFFFF"></path>
                    <path d="M93.3068391,104.165071 L93.3068391,102.080569 C92.9586015,102.080569 92.6075096,102.080569 92.2535632,102.080569 C91.8996169,102.080569 91.5485249,102.080569 91.2002874,102.080569 L91.2002874,104.199384 L92.2535632,104.199384 L93.3068391,104.165071 Z" id="Shape" fill="#E8F2FC"></path>
                    <rect id="Rectangle-path" fill="#FFFFFF" x="19.1065517" y="152.185829" width="146.294023" height="1.05511848"></rect>
                    <path d="M82.637069,83.2857346 C81.4025118,83.2822655 80.2877503,84.025035 79.8137047,85.166952 C79.339659,86.308869 79.5999315,87.6244573 80.4728987,88.4989516 C81.3458658,89.373446 82.6591566,89.6341738 83.7990794,89.1592988 C84.9390022,88.6844239 85.6804745,87.5677122 85.6770115,86.3309953 C85.6770115,84.6491442 84.3159829,83.2857346 82.637069,83.2857346 Z" id="Shape" fill="#00E5FF"></path>
                    <path d="M101.870057,83.2857346 C100.6355,83.2822655 99.5207388,84.025035 99.0466932,85.166952 C98.5726475,86.308869 98.83292,87.6244573 99.7058872,88.4989516 C100.578854,89.373446 101.892145,89.6341738 103.032068,89.1592988 C104.171991,88.6844239 104.913463,87.5677122 104.91,86.3309953 C104.905296,84.6511 103.547019,83.2904468 101.870057,83.2857346 Z" id="Shape" fill="#00E5FF"></path>
                    <path d="M82.637069,64.0190995 C81.4025118,64.0156305 80.2877503,64.7583999 79.8137047,65.9003169 C79.339659,67.0422339 79.5999315,68.3578222 80.4728987,69.2323165 C81.3458658,70.1068109 82.6591566,70.3675387 83.7990794,69.8926637 C84.9390022,69.4177888 85.6804745,68.3010771 85.6770115,67.0643602 C85.6770115,65.3825092 84.3159829,64.0190995 82.637069,64.0190995 Z" id="Shape" fill="#00E5FF"></path>
                    <path d="M101.870057,70.1181991 C103.553701,70.1181991 104.918563,68.7509488 104.918563,67.0643602 C104.918563,65.3777716 103.553701,64.0105213 101.870057,64.0105213 C100.186414,64.0105213 98.8215517,65.3777716 98.8215517,67.0643602 C98.8215517,68.7509488 100.186414,70.1181991 101.870057,70.1181991 Z" id="Shape" fill="#00E5FF"></path>
                    <path d="M64.602931,84.0663507 C63.8540378,84.0663588 63.179051,84.5187349 62.8932685,85.2121666 C62.607486,85.9055982 62.7673105,86.7032282 63.2980852,87.2324698 C63.8288599,87.7617115 64.62583,87.9181126 65.3167171,87.6286155 C66.0076042,87.3391184 66.4560533,86.6608588 66.4525862,85.9106635 C66.4525915,85.4200314 66.2574448,84.9496186 65.9103188,84.6034952 C65.5631928,84.2573718 65.092701,84.0640687 64.602931,84.0663507 Z" id="Shape" fill="#1A82E2"></path>
                    <path d="M83.0395402,102.543791 C82.290655,102.540318 81.61358,102.989552 81.3245884,103.681648 C81.0355969,104.373743 81.1917248,105.172108 81.7200422,105.703811 C82.2483596,106.235514 83.0445967,106.395618 83.7368173,106.109336 C84.429038,105.823053 84.8806242,105.146886 84.8806322,104.396682 C84.8806431,103.3767 84.0577308,102.548514 83.0395402,102.543791 Z" id="Shape" fill="#1A82E2"></path>
                    <path d="M83.0395402,121.012654 L82.9367816,121.012654 L82.9367816,124.684123 L83.030977,124.684123 C84.047784,124.684123 84.872069,123.858396 84.872069,122.83981 C84.872069,121.821225 84.047784,120.995498 83.030977,120.995498 L83.0395402,121.012654 Z" id="Shape" fill="#1A82E2"></path>
                    <path d="M83.0395402,139.472938 L82.9367816,139.472938 L82.9367816,140.579526 C82.9387067,141.478905 83.4736999,142.291225 84.2983333,142.646872 C84.8451414,142.127376 85.0206914,141.326502 84.7414571,140.625305 C84.4622227,139.924108 83.7845906,139.464182 83.030977,139.46436 L83.0395402,139.472938 Z" id="Shape" fill="#1A82E2"></path>
                    <path d="M101.467586,102.543791 C100.449396,102.548514 99.6264833,103.3767 99.6264943,104.396682 C99.6180778,104.470788 99.6180778,104.54561 99.6264943,104.619716 C100.584485,104.076651 101.508204,103.47504 102.392414,102.818294 C102.114488,102.644925 101.794932,102.550076 101.467586,102.543791 Z" id="Shape" fill="#1A82E2"></path>
                    <path d="M64.602931,69.3118483 C65.3385958,69.3204307 66.0080624,68.8874461 66.3030486,68.2122796 C66.5980348,67.537113 66.4613435,66.7506776 65.9559195,66.2151185 C65.2465322,67.1680439 64.6027993,68.1682919 64.0291954,69.20891 C64.213771,69.2735233 64.4074427,69.3082714 64.602931,69.3118483 Z" id="Shape" fill="#1A82E2"></path>
                </g>
            </g>
        </g>
    </g>
</svg>