<svg width="40" height="40" xmlns="http://www.w3.org/2000/svg"><g fill="none" fill-rule="evenodd"><circle fill-opacity=".05" fill="#FF5722" cx="20" cy="20" r="20"/><path d="M17.364 15.455c1.181 0 2.636-.728 3-1.546.181-.273.636-.273.818 0 .09.091.182.273.182.364.727 1.09 1.454 1.363 2.727 1.182-.364-2.364-2-4.091-4-4.091-1.91 0-3.546 1.636-4 3.818.454.182.818.273 1.273.273z"/><path d="M20.09 21.364c2.274 0 4.092-2.182 4.092-5-1.455.272-2.546-.182-3.455-1.455-.727.91-2.182 1.455-3.363 1.455-.455 0-.91-.091-1.364-.182v.182c0 2.818 1.818 5 4.09 5zM26.727 25.727l-4.545-1.636a.5.5 0 0 1-.273-.455V21.91c-.545.273-1.182.364-1.818.364-.636 0-1.273-.182-1.818-.364v1.727a.5.5 0 0 1-.273.455l-4.545 1.636c-.91.364-1.546 1.182-1.546 2.182v1.182h16.364v-1.273c0-.909-.637-1.818-1.546-2.09z"/><path d="M27.09 24.818l-4.272-1.545v-2c1.364-1.091 2.273-2.91 2.273-4.91 0-3.272-2.182-5.908-5-5.908s-5 2.636-5 5.909c0 2.09.909 3.909 2.273 4.909v2l-4.273 1.545c-1.273.455-2.091 1.637-2.091 3v1.727c0 .273.182.455.455.455h17.272c.273 0 .455-.182.455-.455v-1.727c0-1.363-.818-2.545-2.091-3zm-7-13.454c2 0 3.637 1.727 4 4.09-1.18.273-2-.09-2.726-1.181-.091-.091-.182-.273-.182-.364-.182-.273-.637-.273-.818 0-.364.818-1.819 1.546-3 1.546-.455 0-.819-.091-1.273-.273.454-2.182 2.09-3.818 4-3.818zm-4.09 5v-.182c.455.09.91.182 1.364.182 1.181 0 2.636-.546 3.363-1.455.91 1.182 2 1.636 3.455 1.455 0 2.818-1.818 5-4.091 5S16 19.182 16 16.364zM28.273 29.09H11.909v-1.273c0-1 .636-1.818 1.546-2.182L18 24c.182 0 .273-.182.273-.364V21.91c.545.273 1.182.364 1.818.364.636 0 1.273-.182 1.818-.364v1.727a.5.5 0 0 0 .273.455l4.545 1.636c.91.364 1.546 1.182 1.546 2.182v1.182z" fill="#FF5722" fill-rule="nonzero"/></g></svg>