<svg width="40" height="40" xmlns="http://www.w3.org/2000/svg"><g fill="#546B81" fill-rule="evenodd"><circle fill-opacity=".05" cx="20" cy="20" r="20"/><path d="M28.268 20c0-.57-.063-1.142-.184-1.715l-.21.467 1.896-1.085a.435.435 0 0 0 .16-.596l-2.412-4.143a.435.435 0 0 0-.595-.157l-1.86 1.09.51.052c-1.012-.905-1.816-1.4-2.963-1.723l.317.418v-2.173a.435.435 0 0 0-.435-.435h-4.823a.435.435 0 0 0-.435.435v2.173l.317-.418c-1.177.331-2.095.87-3.047 1.723l.504-.054-1.927-1.09a.435.435 0 0 0-.59.158l-2.42 4.143a.435.435 0 0 0 .158.597l1.892 1.085-.208-.469a8.1 8.1 0 0 0-.005 3.434l.209-.47-1.898 1.087a.435.435 0 0 0-.16.596l2.41 4.143c.12.205.382.277.589.161l1.948-1.092-.503-.056c.948.852 1.867 1.392 3.047 1.726l-.316-.418v2.171c0 .24.194.435.435.435h4.823c.24 0 .435-.195.435-.435v-2.171l-.317.418c1.148-.325 1.954-.82 2.963-1.725l-.508.052 1.88 1.092c.208.12.474.05.594-.158l2.402-4.143a.435.435 0 0 0-.16-.596l-1.902-1.087.21.469c.12-.558.18-1.131.18-1.716zm-.87 0c0 .524-.053 1.036-.16 1.534a.435.435 0 0 0 .21.468l1.901 1.087-.16-.595-2.402 4.143.594-.158-1.88-1.092a.435.435 0 0 0-.508.052c-.919.824-1.615 1.252-2.62 1.537a.435.435 0 0 0-.316.418v2.171l.435-.435h-4.823l.434.435v-2.171a.435.435 0 0 0-.316-.418c-1.044-.296-1.848-.769-2.703-1.536a.435.435 0 0 0-.503-.056l-1.948 1.091.588.161-2.41-4.143-.16.596 1.898-1.087a.435.435 0 0 0 .209-.47 7.234 7.234 0 0 1 .005-3.065.435.435 0 0 0-.209-.469l-1.892-1.086.16.597 2.42-4.143-.59.159 1.928 1.09c.162.092.365.07.504-.054.859-.77 1.662-1.241 2.702-1.534a.435.435 0 0 0 .317-.419v-2.173l-.434.435h4.823l-.435-.435v2.173c0 .195.13.366.317.419 1.003.282 1.698.71 2.618 1.534.14.126.347.147.51.051l1.86-1.09-.595-.157 2.412 4.143.16-.596-1.896 1.086a.435.435 0 0 0-.21.467A7.39 7.39 0 0 1 27.4 20zm-4.22 0c0 1.74-1.424 3.152-3.182 3.152-1.76 0-3.183-1.411-3.183-3.152 0-1.74 1.424-3.152 3.183-3.152 1.757 0 3.182 1.413 3.182 3.152zm.87 0c0-2.221-1.816-4.022-4.052-4.022-2.238 0-4.052 1.8-4.052 4.022 0 2.223 1.814 4.022 4.052 4.022 2.236 0 4.052-1.8 4.052-4.022z" fill-rule="nonzero"/></g></svg>