<?xml version="1.0" encoding="UTF-8"?>
<svg width="40px" height="40px" viewBox="0 0 40 40" version="1.1" xmlns="http://www.w3.org/2000/svg" xmlns:xlink="http://www.w3.org/1999/xlink">
    <!-- Generator: Sketch 51 (57462) - http://www.bohemiancoding.com/sketch -->
    <title>category-block-icon-contact</title>
    <desc>Created with Sketch.</desc>
    <defs></defs>
    <g id="category-block-icon-contact" stroke="none" stroke-width="1" fill="none" fill-rule="evenodd">
        <circle id="Oval" fill-opacity="0.05" fill="#FF5722" cx="20" cy="20" r="20"></circle>
        <g id="teammate" transform="translate(11.000000, 10.000000)">
            <path d="M6.36363636,5.45454545 C7.54545455,5.45454545 9,4.72727273 9.36363636,3.90909091 C9.54545455,3.63636364 10,3.63636364 10.1818182,3.90909091 C10.2727273,4 10.3636364,4.18181818 10.3636364,4.27272727 C11.0909091,5.36363636 11.8181818,5.63636364 13.0909091,5.45454545 C13.0909091,5.45454545 13.0909091,5.45454545 13.0909091,5.45454545 C12.7272727,3.09090909 11.0909091,1.36363636 9.09090909,1.36363636 C7.18181818,1.36363636 5.54545455,3 5.09090909,5.18181818 C5.54545455,5.36363636 5.90909091,5.45454545 6.36363636,5.45454545 Z" id="Shape"></path>
            <path d="M9.09090909,11.3636364 C11.3636364,11.3636364 13.1818182,9.18181818 13.1818182,6.36363636 C11.7272727,6.63636364 10.6363636,6.18181818 9.72727273,4.90909091 C9,5.81818182 7.54545455,6.36363636 6.36363636,6.36363636 C5.90909091,6.36363636 5.45454545,6.27272727 5,6.18181818 C5,6.27272727 5,6.36363636 5,6.36363636 C5,9.18181818 6.81818182,11.3636364 9.09090909,11.3636364 Z" id="Shape"></path>
            <path d="M15.7272727,15.7272727 L11.1818182,14.0909091 C11,14 10.9090909,13.8181818 10.9090909,13.6363636 L10.9090909,11.9090909 C10.3636364,12.1818182 9.72727273,12.2727273 9.09090909,12.2727273 C8.45454545,12.2727273 7.81818182,12.0909091 7.27272727,11.9090909 L7.27272727,13.6363636 C7.27272727,13.8181818 7.18181818,14 7,14.0909091 L2.45454545,15.7272727 C1.54545455,16.0909091 0.909090909,16.9090909 0.909090909,17.9090909 L0.909090909,19.0909091 L17.2727273,19.0909091 L17.2727273,17.8181818 C17.2727273,16.9090909 16.6363636,16 15.7272727,15.7272727 Z" id="Shape"></path>
            <path d="M16.0909091,14.8181818 L11.8181818,13.2727273 L11.8181818,11.2727273 C13.1818182,10.1818182 14.0909091,8.36363636 14.0909091,6.36363636 C14.0909091,3.09090909 11.9090909,0.454545455 9.09090909,0.454545455 C6.27272727,0.454545455 4.09090909,3.09090909 4.09090909,6.36363636 C4.09090909,8.45454545 5,10.2727273 6.36363636,11.2727273 L6.36363636,13.2727273 L2.09090909,14.8181818 C0.818181818,15.2727273 0,16.4545455 0,17.8181818 L0,19.5454545 C0,19.8181818 0.181818182,20 0.454545455,20 L17.7272727,20 C18,20 18.1818182,19.8181818 18.1818182,19.5454545 L18.1818182,17.8181818 C18.1818182,16.4545455 17.3636364,15.2727273 16.0909091,14.8181818 Z M9.09090909,1.36363636 C11.0909091,1.36363636 12.7272727,3.09090909 13.0909091,5.45454545 C13.0909091,5.45454545 13.0909091,5.45454545 13.0909091,5.45454545 C11.9090909,5.72727273 11.0909091,5.36363636 10.3636364,4.27272727 C10.2727273,4.18181818 10.1818182,4 10.1818182,3.90909091 C10,3.63636364 9.54545455,3.63636364 9.36363636,3.90909091 C9,4.72727273 7.54545455,5.45454545 6.36363636,5.45454545 C5.90909091,5.45454545 5.54545455,5.36363636 5.09090909,5.18181818 C5.54545455,3 7.18181818,1.36363636 9.09090909,1.36363636 Z M5,6.36363636 C5,6.27272727 5,6.18181818 5,6.18181818 C5.45454545,6.27272727 5.90909091,6.36363636 6.36363636,6.36363636 C7.54545455,6.36363636 9,5.81818182 9.72727273,4.90909091 C10.6363636,6.09090909 11.7272727,6.54545455 13.1818182,6.36363636 C13.1818182,9.18181818 11.3636364,11.3636364 9.09090909,11.3636364 C6.81818182,11.3636364 5,9.18181818 5,6.36363636 Z M17.2727273,19.0909091 L0.909090909,19.0909091 L0.909090909,17.8181818 C0.909090909,16.8181818 1.54545455,16 2.45454545,15.6363636 L7,14 C7.18181818,14 7.27272727,13.8181818 7.27272727,13.6363636 L7.27272727,11.9090909 C7.81818182,12.1818182 8.45454545,12.2727273 9.09090909,12.2727273 C9.72727273,12.2727273 10.3636364,12.0909091 10.9090909,11.9090909 L10.9090909,13.6363636 C10.9090909,13.8181818 11,14 11.1818182,14.0909091 L15.7272727,15.7272727 C16.6363636,16.0909091 17.2727273,16.9090909 17.2727273,17.9090909 L17.2727273,19.0909091 Z" id="Shape" fill="#FF5722" fill-rule="nonzero"></path>
        </g>
    </g>
</svg>