<svg width="40" height="40" xmlns="http://www.w3.org/2000/svg"><g fill="#2484DF" fill-rule="evenodd"><circle fill-opacity=".05" cx="20" cy="20" r="20"/><path d="M25.963 26.195l-7.339-4.035L28.9 12.623l-2.936 13.572zm-7.628 1.177v-4.42l1.952 1.073-1.952 3.347zm-.51-5.607l-6.288-2.445 16.072-6.636-9.784 9.08zm.453 7.358l2.74-4.696 5.034 2.768a.416.416 0 0 0 .607-.277l3.335-15.414v-.011a.36.36 0 0 0 .005-.1c-.001-.018-.001-.036-.004-.053a.562.562 0 0 0-.051-.133.275.275 0 0 0-.025-.036.393.393 0 0 0-.149-.126.38.38 0 0 0-.08-.031c-.017-.004-.035-.006-.052-.009-.024-.002-.047-.006-.071-.005a.378.378 0 0 0-.152.036l-19.157 7.91a.417.417 0 0 0 .007.774l7.236 2.812v6.38c0 .426.562.578.777.21z"/></g></svg>