<svg width="40" height="40" xmlns="http://www.w3.org/2000/svg"><g fill="#7C4DFF" fill-rule="evenodd"><circle fill-opacity=".05" cx="20" cy="20" r="20"/><g fill-rule="nonzero"><path d="M10.4 29.248h18.4a.4.4 0 1 0 0-.8H10.4a.4.4 0 1 0 0 .8z"/><path d="M11.2 29.248a.4.4 0 0 1-.4-.4v-3.84c0-.22.18-.4.4-.4h2.4c.22 0 .4.18.4.4v3.84a.4.4 0 0 1-.4.4h-2.4zm2-.8v-3.04h-1.6v3.04h1.6zM16 29.248a.4.4 0 0 1-.4-.4v-7.68c0-.22.18-.4.4-.4h2.4c.22 0 .4.18.4.4v7.68a.4.4 0 0 1-.4.4H16zm2-.8v-6.88h-1.6v6.88H18zM20.8 29.248a.4.4 0 0 1-.4-.4v-6.144c0-.22.18-.4.4-.4h2.4c.22 0 .4.18.4.4v6.144a.4.4 0 0 1-.4.4h-2.4zm2-.8v-5.344h-1.6v5.344h1.6zM25.6 29.248a.4.4 0 0 1-.4-.4v-11.52c0-.22.18-.4.4-.4H28c.22 0 .4.18.4.4v11.52a.4.4 0 0 1-.4.4h-2.4zm2-.8v-10.72H26v10.72h1.6zM12.8 19.632c0-.2-.175-.368-.4-.368-.225 0-.4.168-.4.368 0 .2.176.368.4.368.225 0 .4-.168.4-.368zm.8 0c0 .649-.54 1.168-1.2 1.168-.659 0-1.2-.52-1.2-1.168 0-.65.54-1.168 1.2-1.168.66 0 1.2.519 1.2 1.168zM17.6 15.792c0-.2-.175-.368-.4-.368-.225 0-.4.168-.4.368 0 .2.176.368.4.368.225 0 .4-.168.4-.368zm.8 0c0 .649-.54 1.168-1.2 1.168-.659 0-1.2-.52-1.2-1.168 0-.65.54-1.168 1.2-1.168.66 0 1.2.519 1.2 1.168zM22.4 17.328c0-.2-.175-.368-.4-.368-.225 0-.4.168-.4.368 0 .2.176.368.4.368.225 0 .4-.168.4-.368zm.8 0c0 .649-.54 1.168-1.2 1.168-.659 0-1.2-.52-1.2-1.168 0-.65.54-1.168 1.2-1.168.66 0 1.2.519 1.2 1.168zM27.2 11.952c0-.2-.175-.368-.4-.368-.225 0-.4.168-.4.368 0 .2.176.368.4.368.225 0 .4-.168.4-.368zm.8 0c0 .649-.54 1.168-1.2 1.168-.659 0-1.2-.52-1.2-1.168 0-.65.54-1.168 1.2-1.168.66 0 1.2.519 1.2 1.168z"/><path d="M13.265 19.453l3.571-2.858a.4.4 0 0 0-.5-.624l-3.571 2.857a.4.4 0 0 0 .5.625zM17.834 16.415l3.308 1.058.244-.762-3.308-1.058zM25.981 12.268l-3.759 4.21a.4.4 0 1 0 .597.533l3.76-4.21a.4.4 0 1 0-.598-.533z"/></g></g></svg>