<?xml version="1.0" encoding="UTF-8"?>
<svg width="40px" height="40px" viewBox="0 0 40 40" version="1.1" xmlns="http://www.w3.org/2000/svg" xmlns:xlink="http://www.w3.org/1999/xlink">
    <!-- Generator: Sketch 51 (57462) - http://www.bohemiancoding.com/sketch -->
    <title>category-block-icon-analytics</title>
    <desc>Created with Sketch.</desc>
    <defs></defs>
    <g id="category-block-icon-analytics" stroke="none" stroke-width="1" fill="none" fill-rule="evenodd">
        <circle id="Oval" fill-opacity="0.05" fill="#7C4DFF" cx="20" cy="20" r="20"></circle>
        <g id="analytics" transform="translate(10.000000, 10.000000)" fill="#7C4DFF" fill-rule="nonzero">
            <path d="M0.4,19.248 L18.8,19.248 C19.0209139,19.248 19.2,19.0689139 19.2,18.848 C19.2,18.6270861 19.0209139,18.448 18.8,18.448 L0.4,18.448 C0.1790861,18.448 0,18.6270861 0,18.848 C0,19.0689139 0.1790861,19.248 0.4,19.248 Z" id="Stroke-865"></path>
            <path d="M1.2,19.248 C0.9790861,19.248 0.8,19.0689139 0.8,18.848 L0.8,15.008 C0.8,14.7870861 0.9790861,14.608 1.2,14.608 L3.6,14.608 C3.8209139,14.608 4,14.7870861 4,15.008 L4,18.848 C4,19.0689139 3.8209139,19.248 3.6,19.248 L1.2,19.248 Z M3.2,18.448 L3.2,15.408 L1.6,15.408 L1.6,18.448 L3.2,18.448 Z" id="Stroke-866"></path>
            <path d="M6,19.248 C5.7790861,19.248 5.6,19.0689139 5.6,18.848 L5.6,11.168 C5.6,10.9470861 5.7790861,10.768 6,10.768 L8.4,10.768 C8.6209139,10.768 8.8,10.9470861 8.8,11.168 L8.8,18.848 C8.8,19.0689139 8.6209139,19.248 8.4,19.248 L6,19.248 Z M8,18.448 L8,11.568 L6.4,11.568 L6.4,18.448 L8,18.448 Z" id="Stroke-867"></path>
            <path d="M10.8,19.248 C10.5790861,19.248 10.4,19.0689139 10.4,18.848 L10.4,12.704 C10.4,12.4830861 10.5790861,12.304 10.8,12.304 L13.2,12.304 C13.4209139,12.304 13.6,12.4830861 13.6,12.704 L13.6,18.848 C13.6,19.0689139 13.4209139,19.248 13.2,19.248 L10.8,19.248 Z M12.8,18.448 L12.8,13.104 L11.2,13.104 L11.2,18.448 L12.8,18.448 Z" id="Stroke-868"></path>
            <path d="M15.6,19.248 C15.3790861,19.248 15.2,19.0689139 15.2,18.848 L15.2,7.328 C15.2,7.1070861 15.3790861,6.928 15.6,6.928 L18,6.928 C18.2209139,6.928 18.4,7.1070861 18.4,7.328 L18.4,18.848 C18.4,19.0689139 18.2209139,19.248 18,19.248 L15.6,19.248 Z M17.6,18.448 L17.6,7.728 L16,7.728 L16,18.448 L17.6,18.448 Z" id="Stroke-869"></path>
            <path d="M2.8,9.632 C2.8,9.43194553 2.62505674,9.264 2.4,9.264 C2.1754079,9.264 2,9.43227529 2,9.632 C2,9.83128647 2.17574326,10 2.4,10 C2.62472151,10 2.8,9.83161636 2.8,9.632 Z M3.6,9.632 C3.6,10.2807864 3.059526,10.8 2.4,10.8 C1.74105674,10.8 1.2,10.2805855 1.2,9.632 C1.2,8.9828471 1.74083923,8.464 2.4,8.464 C3.05974326,8.464 3.6,8.98264647 3.6,9.632 Z" id="Stroke-870"></path>
            <path d="M7.6,5.792 C7.6,5.59194553 7.42505674,5.424 7.2,5.424 C6.9754079,5.424 6.8,5.59227529 6.8,5.792 C6.8,5.99128647 6.97574326,6.16 7.2,6.16 C7.42472151,6.16 7.6,5.99161636 7.6,5.792 Z M8.4,5.792 C8.4,6.44078639 7.859526,6.96 7.2,6.96 C6.54105674,6.96 6,6.44058553 6,5.792 C6,5.1428471 6.54083923,4.624 7.2,4.624 C7.85974326,4.624 8.4,5.14264647 8.4,5.792 Z" id="Stroke-871"></path>
            <path d="M12.4,7.328 C12.4,7.12794553 12.2250567,6.96 12,6.96 C11.7754079,6.96 11.6,7.12827529 11.6,7.328 C11.6,7.52728647 11.7757433,7.696 12,7.696 C12.2247215,7.696 12.4,7.52761636 12.4,7.328 Z M13.2,7.328 C13.2,7.97678639 12.659526,8.496 12,8.496 C11.3410567,8.496 10.8,7.97658553 10.8,7.328 C10.8,6.6788471 11.3408392,6.16 12,6.16 C12.6597433,6.16 13.2,6.67864647 13.2,7.328 Z" id="Stroke-872"></path>
            <path d="M17.2,1.952 C17.2,1.75194553 17.0250567,1.584 16.8,1.584 C16.5754079,1.584 16.4,1.75227529 16.4,1.952 C16.4,2.15128647 16.5757433,2.32 16.8,2.32 C17.0247215,2.32 17.2,2.15161636 17.2,1.952 Z M18,1.952 C18,2.60078639 17.459526,3.12 16.8,3.12 C16.1410567,3.12 15.6,2.60058553 15.6,1.952 C15.6,1.3028471 16.1408392,0.784 16.8,0.784 C17.4597433,0.784 18,1.30264647 18,1.952 Z" id="Stroke-873"></path>
            <path d="M3.26479897,9.45310196 L6.83599897,6.59537396 C7.00848565,6.45734752 7.03642119,6.20562691 6.89839476,6.03314023 C6.76036832,5.86065355 6.50864771,5.83271801 6.33616103,5.97074444 L2.76496103,8.82847244 C2.59247435,8.96649888 2.56453881,9.21821949 2.70256524,9.39070617 C2.84059168,9.56319285 3.09231229,9.59112839 3.26479897,9.45310196 Z" id="Stroke-874"></path>
            <polygon id="Stroke-875" points="7.83435645 6.41482142 11.1423565 7.47312542 11.3861235 6.71116898 8.07812355 5.65286498"></polygon>
            <path d="M15.981309,2.26796359 L12.222109,6.47813959 C12.0749743,6.64292536 12.0892834,6.89578681 12.2540692,7.04292144 C12.418855,7.19005607 12.6717164,7.17574699 12.818851,7.01096121 L16.578051,2.80078521 C16.7251857,2.63599944 16.7108766,2.38313799 16.5460908,2.23600336 C16.381305,2.08886873 16.1284436,2.10317781 15.981309,2.26796359 Z" id="Stroke-876"></path>
        </g>
    </g>
</svg>