<?xml version="1.0" encoding="UTF-8"?>
<svg width="40px" height="40px" viewBox="0 0 40 40" version="1.1" xmlns="http://www.w3.org/2000/svg" xmlns:xlink="http://www.w3.org/1999/xlink">
    <!-- Generator: Sketch 50.2 (55047) - http://www.bohemiancoding.com/sketch -->
    <title>category-block-icon-partners</title>
    <desc>Created with Sketch.</desc>
    <defs></defs>
    <g id="category-block-icon-partners" stroke="none" stroke-width="1" fill="none" fill-rule="evenodd">
        <circle id="Oval" fill="#ECFDFF" cx="20" cy="20" r="20"></circle>
        <g id="noun_handshakes_1267480" transform="translate(6.000000, 12.000000)" fill="#00BCD4" fill-rule="nonzero">
            <path d="M27.4575557,7.64880367 L22.6175557,0.196029477 C22.5554052,0.10024453 22.4579428,0.0332767885 22.3462009,0.00953485305 C22.234459,-0.0144221362 22.118545,0.00721227241 22.022373,0.0694058208 L19.3081794,1.83224453 C19.1090826,1.96183593 19.0523945,2.2281155 19.1817708,2.42721227 L19.4781149,2.88351335 C18.2493407,3.5577069 17.0604375,3.5489327 16.2710181,3.41426604 C14.6476203,3.13809399 13.5891256,3.52325528 12.5644805,3.89559937 L12.2563945,4.00669614 C12.2563514,4.00669614 12.2563514,4.00673915 12.2563514,4.00673915 L12.0671041,4.07366389 C11.3523084,4.03529829 10.1482224,3.88304023 9.71252349,3.61125528 C9.25312564,3.32454561 8.60693209,2.89615851 8.21205037,2.63215851 L8.34512564,2.42721227 C8.47450198,2.2281155 8.4177708,1.96162087 8.21850198,1.83224453 L5.50409338,0.0694058208 C5.40852349,0.00725528316 5.29239446,-0.0143791254 5.18048048,0.00953485305 C5.0689536,0.0332767885 4.97131919,0.10024453 4.90912564,0.196029477 L0.0692546726,7.64880367 C0.00731918868,7.74437356 -0.0143152199,7.8609327 0.00938370481,7.97241657 C0.0330826295,8.08390044 0.100093382,8.18157786 0.195878328,8.24377141 L2.91028693,10.0063951 C2.982545,10.0534488 3.06379231,10.0756854 3.14405037,10.0756854 C3.28473854,10.0756854 3.42271704,10.0067822 3.50525467,9.87994346 L3.72602887,9.53998647 L5.0417708,10.4024811 L4.94237295,10.4746961 C4.2917493,10.9648467 4.16134069,11.8927176 4.65149123,12.5433413 C4.93983532,12.925965 5.37983532,13.1288467 5.82860951,13.1288467 C6.14258801,13.1288467 6.4609536,13.0293198 6.73458801,12.8230832 L6.746545,12.8132768 C6.7937708,12.994008 6.87480306,13.1689327 6.99398586,13.3270832 C7.28400736,13.7122445 7.7273622,13.9151263 8.1757493,13.9151263 C8.28955575,13.9151263 8.4029751,13.8973628 8.51501811,13.8708252 C8.54349123,14.1245886 8.63209338,14.3746531 8.79652349,14.5930187 C9.03342672,14.9075994 9.37953424,15.1109112 9.7709751,15.1659219 C9.84134069,15.1759865 9.91127618,15.1806316 9.98099661,15.1806316 C10.138545,15.1806316 10.2934267,15.1552553 10.4410826,15.1065241 C10.4772547,15.3453198 10.5652117,15.5738789 10.7141579,15.7715994 C11.0041794,16.1567607 11.4475342,16.3596424 11.8959213,16.3596424 C12.1780289,16.3596424 12.4604375,16.2746531 12.7096848,16.1090617 L14.8470181,17.5138789 C15.0960934,17.6755994 15.3758353,17.7524596 15.6526095,17.7524596 C16.1390181,17.7524596 16.6157493,17.514309 16.9000934,17.0774918 C17.0653407,16.8229972 17.1415557,16.5361585 17.1381149,16.2532768 C17.1659428,16.2548682 17.1934267,16.2592983 17.2214267,16.2592983 C17.3255988,16.2592983 17.430588,16.2483736 17.53476,16.226137 C17.9232762,16.1433843 18.2559643,15.9152983 18.4710181,15.5839004 C18.6363084,15.3294058 18.7124805,15.0425671 18.7090396,14.7596854 C18.7376848,14.7613198 18.7662439,14.7657069 18.7948461,14.7657069 C19.2812547,14.7657069 19.7579859,14.5275564 20.0423299,14.0907392 C20.2034482,13.842137 20.2850396,13.5571908 20.2810826,13.2665241 C20.3094697,13.2681585 20.3378568,13.2725026 20.3662009,13.2725026 C20.8521794,13.2725026 21.3293407,13.0343521 21.6132547,12.5975349 C21.8283084,12.2657069 21.9018138,11.8691908 21.8190611,11.4806746 C21.7689106,11.2452768 21.6600074,11.0346961 21.5126955,10.854008 L22.8221149,10.0068252 C23.0216418,9.87787894 23.07876,9.61159937 22.9498138,9.41207249 C22.8208676,9.21254561 22.554588,9.15585743 22.3550611,9.28437356 L20.7942869,10.294266 L17.9951902,8.46785743 C17.7965235,8.33787894 17.5302009,8.394137 17.3995773,8.59301872 C17.2697708,8.79190044 17.3260719,9.05839507 17.5247385,9.18820152 L20.7081364,11.2656639 C20.9966955,11.4529757 21.0790181,11.8402445 20.8917063,12.1288037 C20.7047816,12.4169327 20.3171256,12.4996854 20.0285665,12.3119435 L19.6081794,12.0389542 C19.6074052,12.0384381 19.6068031,12.0377499 19.6060289,12.0372338 L18.4127385,11.2626961 C18.2128246,11.1328897 17.9469321,11.190051 17.8175557,11.3891047 C17.6881794,11.5886316 17.7449106,11.8549112 17.9439643,11.9842875 L19.1382439,12.7597714 C19.2766095,12.850094 19.3721364,12.9894488 19.4068891,13.1528037 C19.4417708,13.3166316 19.4111041,13.4833843 19.3207816,13.621965 C19.1338568,13.9105241 18.7462009,13.9932768 18.4576418,13.8055349 L18.0391902,13.5337069 C18.0376848,13.5327176 18.0366095,13.5313843 18.0351041,13.5304381 L16.8418138,12.7559004 C16.7920074,12.7233413 16.7378998,12.7026531 16.682717,12.6928897 C16.5175127,12.6635564 16.3436633,12.7330187 16.246631,12.882309 C16.2142439,12.9321155 16.1935557,12.986223 16.1837923,13.0412768 C16.154502,13.2063951 16.2237063,13.3804596 16.3730396,13.4774918 L17.5691256,14.254266 C17.8551902,14.4423521 17.9361364,14.8276424 17.7494697,15.1155994 C17.6595773,15.254223 17.5197063,15.349965 17.3559213,15.3848467 C17.1925235,15.4184381 17.0253407,15.3890617 16.88676,15.2987392 L16.4662869,15.0257069 C16.4655127,15.0251908 16.4649536,15.0245456 16.4642224,15.0240295 L15.2709321,14.2494918 C15.070588,14.1201155 14.8051256,14.1768467 14.6757493,14.3759004 C14.546373,14.5754273 14.6031041,14.8417069 14.8021579,14.9710832 L15.9975557,15.7472983 C16.2842654,15.9351693 16.3654267,16.3209757 16.178588,16.6087607 C15.9912762,16.8964596 15.6056848,16.9805026 15.3175127,16.7935779 L13.4151902,15.5431693 C13.5997063,15.330266 13.7210396,15.0691047 13.7612977,14.7824811 C13.8163084,14.3909972 13.7163514,14.0024811 13.4796633,13.6883306 C13.2429751,13.3737499 12.8968676,13.1704381 12.5052117,13.1154273 C12.4468891,13.1074703 12.3892117,13.1097069 12.3312332,13.1084596 C12.3479643,12.7747822 12.2592762,12.434223 12.0429751,12.1472983 C11.7714052,11.7866101 11.3646955,11.5926316 10.9458568,11.5687176 C10.9731256,11.2217929 10.8848246,10.8644596 10.6594052,10.5654918 C10.1690396,9.91405098 9.24078155,9.78467464 8.590545,10.2743951 L7.57850198,11.0371047 L4.19450198,8.81865313 L7.74331919,3.35379292 C8.14207188,3.62033055 8.78620091,4.04716926 9.25708263,4.34088969 C9.54276005,4.51912625 9.91372779,4.63224453 10.2806525,4.70519077 L10.2460719,4.71740582 C9.47071704,4.98936281 9.06073854,5.84162087 9.33230844,6.61719077 C9.46357725,6.99185743 9.73385682,7.29344883 10.0935988,7.46648109 C10.4529106,7.63951335 10.8574267,7.66265313 11.2333407,7.53073915 L13.2286955,6.82510475 C13.8671471,6.70329829 15.4808676,7.79809399 16.09076,8.21310475 C16.1651256,8.26329829 16.2491256,8.28747034 16.3322654,8.28747034 C16.4700289,8.28747034 16.6052977,8.22153485 16.6884375,8.09908324 C16.8219859,7.90273915 16.77076,7.63516926 16.574631,7.50157786 C14.9911471,6.42506173 13.8444375,5.79667464 13.0126095,5.99177141 C12.9974697,5.9953413 12.982373,5.99977141 12.9676633,6.00501872 L10.9475342,6.71925528 C10.7898138,6.77469614 10.6190611,6.76484668 10.466373,6.6913413 C10.3138998,6.61805098 10.1994482,6.49056711 10.1442224,6.33284668 C10.0293407,6.00480367 10.2028031,5.64420152 10.5319213,5.5289327 L12.5438353,4.81762087 C12.5439213,4.81757786 12.5440074,4.81753485 12.5440504,4.81749184 C12.5441794,4.81744883 12.5443084,4.81744883 12.5444375,4.81740582 L12.8582009,4.70398647 C13.8620719,4.33899722 14.7294267,4.02377141 16.126416,4.26230905 C17.0632332,4.42239507 18.4830611,4.43374991 19.9483514,3.60777141 L24.0216418,9.87994346 C24.1039643,10.0067822 24.2421579,10.0756854 24.3828461,10.0756854 C24.4630611,10.0756854 24.5441364,10.0534058 24.6167816,10.0063951 L27.3309751,8.24377141 C27.4263299,8.18162087 27.4935127,8.08394346 27.5174697,7.97241657 C27.5411256,7.86071765 27.5197063,7.74437356 27.4575557,7.64880367 Z M5.33850198,12.0258789 C5.13372779,11.754137 5.18835145,11.3664381 5.45402887,11.166094 L5.8109751,10.9066961 L6.86869553,11.6000295 L6.20293209,12.1472553 C5.9309751,12.3522445 5.54370629,12.2972338 5.33850198,12.0258789 Z M12.7925235,14.2058359 C12.8910181,14.3364596 12.9326095,14.4989972 12.9095127,14.6628252 C12.886631,14.8270402 12.8017708,14.9715564 12.6711471,15.0698359 L12.6709321,15.0698359 L12.2655988,15.3755994 C11.9940719,15.5805886 11.6061579,15.5255349 11.4011687,15.254223 C11.302674,15.1231693 11.2610826,14.9610617 11.2841794,14.7972338 C11.3072762,14.6330187 11.3919213,14.4885026 11.52276,14.390223 L11.9283084,14.0844596 C12.0356203,14.0038144 12.1639643,13.9609757 12.2972977,13.9609757 C12.326502,13.9609757 12.3558783,13.9630832 12.3855127,13.9672553 C12.5495127,13.9903521 12.6940289,14.0752123 12.7925235,14.2058359 Z M11.3560074,12.6647607 C11.5605665,12.9365026 11.5061579,13.3242015 11.234416,13.5291908 L10.3479643,14.1970187 C10.2173407,14.2957284 10.0537278,14.3368897 9.8909751,14.314223 C9.7269751,14.2911263 9.58224392,14.206266 9.4837493,14.0756424 C9.2789751,13.8039004 9.33359876,13.4162015 9.60534069,13.2116424 L10.4915773,12.5433843 C10.602674,12.4598144 10.7328676,12.4194703 10.8622439,12.4194703 C11.0495988,12.4194703 11.2348461,12.5042875 11.3560074,12.6647607 Z M9.10805037,10.9615349 C9.21914715,10.877965 9.34934069,10.8376209 9.47871704,10.8376209 C9.66602887,10.8376209 9.85127618,10.9224811 9.97243747,11.0829112 C10.0709321,11.2135349 10.1125235,11.3760725 10.0894267,11.5399004 C10.0663299,11.7041155 9.98168478,11.8486316 9.85106112,11.9469112 L9.85084607,11.9469112 L8.5453837,12.9310402 C8.27385682,13.1360295 7.88551274,13.0814058 7.68116865,12.8096639 C7.47699661,12.5386531 7.53093209,12.1527607 7.80052349,11.9473413 L7.81067403,11.9390402 L9.10805037,10.9615349 Z M3.01807188,9.05082518 L1.02503962,7.75654561 L5.39626543,1.02519077 L7.38929768,2.31951335 L3.01807188,9.05082518 Z M24.5089536,9.05043808 L20.1372977,2.31951335 L22.1303299,1.02519077 L26.5015557,7.75654561 L24.5089536,9.05043808 Z" id="Shape"></path>
        </g>
    </g>
</svg>