<?xml version="1.0" encoding="UTF-8"?>
<svg width="40px" height="40px" viewBox="0 0 40 40" version="1.1" xmlns="http://www.w3.org/2000/svg" xmlns:xlink="http://www.w3.org/1999/xlink">
    <!-- Generator: Sketch 50.2 (55047) - http://www.bohemiancoding.com/sketch -->
    <title>category-block-icon-partners</title>
    <desc>Created with Sketch.</desc>
    <defs>
        <rect id="path-1" x="0.0105583529" y="0.548831" width="2.94117647" height="4.11764706" rx="1.47058824"></rect>
        <rect id="path-3" x="0.577676941" y="0.0394042941" width="2.94117647" height="5.29411765" rx="1.47058824"></rect>
        <rect id="path-5" x="0.556560235" y="0.548831" width="2.94117647" height="4.11764706" rx="1.47058824"></rect>
        <path d="M1.99487082,0.574580235 C2.06650406,0.257248353 2.38286165,0.0636171765 2.6953,0.140571941 L5.31162724,0.784983412 C5.62683035,0.862619176 5.80094141,1.17953076 5.70387,1.48235929 L3.34059006,8.85496082 C3.24201671,9.16247512 2.90333865,9.41176471 2.57474971,9.41176471 L0.587357412,9.41176471 C0.262968882,9.41176471 0.0568272353,9.16002276 0.129703471,8.83718447 L1.99487082,0.574580235 Z" id="path-7"></path>
        <path d="M2.03144718,0.574580235 C2.10308041,0.257248353 2.41943794,0.0636171765 2.73187629,0.140571941 L5.34820359,0.784983412 C5.66340671,0.862619176 5.83751771,1.17953076 5.74044635,1.48235929 L3.37716641,8.85496082 C3.278593,9.16247512 2.939915,9.41176471 2.61132606,9.41176471 L0.623933765,9.41176471 C0.299545235,9.41176471 0.0934035882,9.16002276 0.166279765,8.83718447 L2.03144718,0.574580235 Z" id="path-9"></path>
    </defs>
    <g id="category-block-icon-partners" stroke="none" stroke-width="1" fill="none" fill-rule="evenodd">
        <circle id="Oval" fill="#ECFDFF" cx="20" cy="20" r="20"></circle>
        <g id="handshake-icon" transform="translate(7.000000, 10.000000)">
            <g id="Rectangle-5-Copy" transform="translate(7.492478, 15.288556) rotate(30.000000) translate(-7.492478, -15.288556) translate(5.992478, 12.788556)" stroke="#00BCD4" stroke-width="1.5">
                <g id="path-3-Clipped">
                    <rect id="path-3" x="0.0105583529" y="0.548831" width="2.94117647" height="4.11764706" rx="1.47058824"></rect>
                </g>
            </g>
            <g id="Rectangle-5-Copy" transform="translate(5.492478, 14.288556) rotate(30.000000) translate(-5.492478, -14.288556) translate(3.992478, 11.788556)">
                <g id="path-3-Clipped">
                    <mask id="mask-2" fill="white">
                        <use xlink:href="#path-1"></use>
                    </mask>
                    <g id="path-3"></g>
                    <rect id="path-3" stroke="#00BCD4" stroke-width="1.5" mask="url(#mask-2)" x="0.0105583529" y="0.548831" width="2.94117647" height="4.11764706" rx="1.47058824"></rect>
                </g>
            </g>
            <g id="Rectangle-5-Copy-2" transform="translate(9.381221, 16.118213) rotate(30.000000) translate(-9.381221, -16.118213) translate(7.616515, 13.177036)">
                <g id="path-5-Clipped">
                    <mask id="mask-4" fill="white">
                        <use xlink:href="#path-3"></use>
                    </mask>
                    <g id="path-5"></g>
                    <rect id="path-5" stroke="#00BCD4" stroke-width="1.5" mask="url(#mask-4)" x="0.577676941" y="0.0394042941" width="2.94117647" height="5.29411765" rx="1.47058824"></rect>
                </g>
            </g>
            <g id="Rectangle-5-Copy-3" transform="translate(11.397811, 17.373492) rotate(30.000000) translate(-11.397811, -17.373492) translate(9.633106, 15.020551)">
                <g id="path-7-Clipped">
                    <mask id="mask-6" fill="white">
                        <use xlink:href="#path-5"></use>
                    </mask>
                    <g id="path-7"></g>
                    <rect id="path-7" stroke="#00BCD4" stroke-width="1.5" mask="url(#mask-6)" x="0.556560235" y="0.548831" width="2.94117647" height="4.11764706" rx="1.47058824"></rect>
                </g>
            </g>
            <path d="M13.1983391,10.2290408 L22.6861388,10.2290408 C23.3329685,10.2290408 23.8573277,10.7506842 23.8573277,11.4042711 C23.8573277,12.0533328 23.3366597,12.5788232 22.6820282,12.5779707 L16.282218,12.5696362" id="Path-3" stroke="#00BCD4" stroke-width="0.8" stroke-linecap="round" transform="translate(18.527833, 11.403506) rotate(35.000000) translate(-18.527833, -11.403506) "></path>
            <path d="M14.0954138,12.4938889 L20.0476859,12.4938889 C20.6978934,12.4938889 21.2249905,13.0155323 21.2249905,13.6691191 C21.2249905,14.3181809 20.6966185,14.8434911 20.053929,14.8424473 L15.1513368,14.8344843" id="Path-3-Copy" stroke="#00BCD4" stroke-width="0.8" stroke-linecap="round" transform="translate(17.660202, 13.668169) rotate(35.000000) translate(-17.660202, -13.668169) "></path>
            <path d="M14.0645678,14.0213435 L17.6482853,14.0213435 C18.2981827,14.0213435 18.8250287,14.5429869 18.8250287,15.1965737 C18.8250287,15.8456355 18.2988711,16.3709629 17.6497373,16.3699252 L12.6537757,16.3619389" id="Path-3-Copy-2" stroke="#00BCD4" stroke-width="0.8" stroke-linecap="round" transform="translate(15.739402, 15.195635) rotate(35.000000) translate(-15.739402, -15.195635) "></path>
            <path d="M11.609613,15.6741219 L15.217752,15.6741219 C15.8630949,15.6741219 16.3862486,16.1957653 16.3862486,16.8493521 C16.3862486,17.4984139 15.863421,18.022773 15.2103798,18.0205129 L13.5357384,18.0147173" id="Path-3-Copy-3" stroke="#00BCD4" stroke-width="0.8" stroke-linecap="round" transform="translate(13.997931, 16.847321) rotate(35.000000) translate(-13.997931, -16.847321) "></path>
            <path d="M14.6431764,6.88405744 C14.6431764,6.88405744 12.1227064,8.47409591 11.8242497,8.8578912 C11.5257929,9.24168656 10.914804,10.7212121 10.3977509,11.2165165 C9.88069768,11.7118209 9.26490126,12.1400916 8.84942438,11.7075866 C8.30950032,11.145534 9.77995126,8.20163814 10.1652272,7.54284779 C10.5505031,6.88405744 11.4446607,5.96393532 12.216549,5.68112238 C12.9884373,5.39830944 15.5464824,5.25369073 16.0368797,5.14377467 C16.527277,5.03385856 19.17726,2.85003497 19.17726,2.85003497" id="Path-4" stroke="#00BCD4" stroke-width="0.8" stroke-linecap="round" stroke-linejoin="round" transform="translate(13.954476, 7.368043) rotate(35.000000) translate(-13.954476, -7.368043) "></path>
            <g id="Rectangle-4" transform="translate(0.058824, 5.117647)">
                <g id="path-9-Clipped">
                    <mask id="mask-8" fill="white">
                        <use xlink:href="#path-7"></use>
                    </mask>
                    <g id="path-9"></g>
                    <path d="M1.99487082,0.574580235 C2.06650406,0.257248353 2.38286165,0.0636171765 2.6953,0.140571941 L5.31162724,0.784983412 C5.62683035,0.862619176 5.80094141,1.17953076 5.70387,1.48235929 L3.34059006,8.85496082 C3.24201671,9.16247512 2.90333865,9.41176471 2.57474971,9.41176471 L0.587357412,9.41176471 C0.262968882,9.41176471 0.0568272353,9.16002276 0.129703471,8.83718447 L1.99487082,0.574580235 Z" id="path-9" stroke="#00BCD4" stroke-width="1.5" mask="url(#mask-8)"></path>
                </g>
            </g>
            <g id="Rectangle-4-Copy" transform="translate(23.565988, 10.117647) scale(-1, 1) translate(-23.565988, -10.117647) translate(20.565988, 5.117647)">
                <g id="path-11-Clipped">
                    <mask id="mask-10" fill="white">
                        <use xlink:href="#path-9"></use>
                    </mask>
                    <g id="path-11"></g>
                    <path d="M2.03144718,0.574580235 C2.10308041,0.257248353 2.41943794,0.0636171765 2.73187629,0.140571941 L5.34820359,0.784983412 C5.66340671,0.862619176 5.83751771,1.17953076 5.74044635,1.48235929 L3.37716641,8.85496082 C3.278593,9.16247512 2.939915,9.41176471 2.61132606,9.41176471 L0.623933765,9.41176471 C0.299545235,9.41176471 0.0934035882,9.16002276 0.166279765,8.83718447 L2.03144718,0.574580235 Z" id="path-11" stroke="#00BCD4" stroke-width="1.5" mask="url(#mask-10)"></path>
                </g>
            </g>
            <path d="M5.58961312,6.45709129 C5.58961312,6.45709129 6.55286659,6.10785547 7.43914376,5.959123 C8.32542094,5.81039047 9.43778747,5.95912294 9.43778747,5.95912294" id="Path-5" stroke="#00BCD4" stroke-width="0.8" stroke-linecap="round"></path>
            <path d="M3.39035788,13.5920779 L4.14760294,13.986166" id="Path-6" stroke="#00BCD4" stroke-width="0.8"></path>
        </g>
    </g>
</svg>