<?xml version="1.0" encoding="UTF-8"?>
<svg width="60px" height="60px" viewBox="0 0 60 60" version="1.1" xmlns="http://www.w3.org/2000/svg" xmlns:xlink="http://www.w3.org/1999/xlink">
    <!-- Generator: Sketch 50.2 (55047) - http://www.bohemiancoding.com/sketch -->
    <title>Group 25</title>
    <desc>Created with Sketch.</desc>
    <defs></defs>
    <g id="UI" stroke="none" stroke-width="1" fill="none" fill-rule="evenodd">
        <g id="Release-Notes" transform="translate(-920.000000, -479.000000)">
            <g id="Group-7" transform="translate(884.000000, 479.000000)">
                <g id="Group-6-Copy-2">
                    <g id="Group-25" transform="translate(36.000000, 0.000000)">
                        <g id="Group-5" fill="#FFE6EE">
                            <circle id="Oval-2" cx="30" cy="30" r="30"></circle>
                        </g>
                        <g id="noun_1187700_cc" transform="translate(15.000000, 19.000000)" fill="#FF4081" fill-rule="nonzero">
                            <path d="M15,0 C12.3721718,0 10.2272727,2.12807601 10.2272727,4.73529412 C10.2272727,6.48414275 11.1962536,8.01686918 12.6242898,8.83639706 C11.5074494,9.19777475 10.4990431,9.79846068 9.66264205,10.5909926 C9.14579284,10.1335111 8.53244284,9.77562912 7.87286932,9.5234375 C8.87784784,8.85399375 9.54545455,7.71093535 9.54545455,6.42647059 C9.54545455,4.37965899 7.85844614,2.70588235 5.79545455,2.70588235 C3.73246295,2.70588235 2.04545455,4.37965899 2.04545455,6.42647059 C2.04545455,7.71093535 2.71306159,8.85399375 3.71803977,9.5234375 C1.54392409,10.3545259 0,12.4417959 0,14.8929228 L0,18.4655331 C0.0020814136,18.7517995 0.185538905,19.0057789 0.458096591,19.0997243 C1.85757852,19.5816828 3.42914659,19.8807163 5.09232955,19.9453125 C5.3359277,19.9547661 5.56610379,19.8345582 5.69614743,19.629973 C5.82619107,19.4253877 5.83634411,19.1675085 5.72278176,18.953482 C5.6092194,18.7394555 5.38919574,18.6017996 5.14559659,18.5923713 C3.7838833,18.5394838 2.51667614,18.2989941 1.36363636,17.9476103 L1.36363636,14.8929228 C1.36363636,12.4393163 3.32906284,10.4852941 5.79545455,10.4852941 C6.93972648,10.4852941 7.97333898,10.916079 8.75710227,11.6162684 C7.75620682,12.9574677 7.15909091,14.6256716 7.15909091,16.4361213 L7.15909091,21.1502757 C7.15955711,21.4338132 7.33817663,21.6869826 7.60653409,21.7844669 C9.80988034,22.5627199 12.3296322,23 15,23 C17.6703678,23 20.1797884,22.5626049 22.3828125,21.7844669 C22.6553702,21.6905216 22.8388277,21.4365421 22.8409091,21.1502757 L22.8409091,19.8924632 C23.2890208,19.9293755 23.7417286,19.9558824 24.2045455,19.9558824 C26.1302693,19.9558824 27.9457565,19.6494107 29.5419034,19.0997243 C29.8144611,19.0057789 29.9979186,18.7517995 30,18.4655331 L30,14.8929228 C30,12.4417959 28.4560759,10.3545259 26.2819602,9.5234375 C27.2869384,8.85399375 27.9545455,7.71093535 27.9545455,6.42647059 C27.9545455,4.37965899 26.267537,2.70588235 24.2045455,2.70588235 C22.1415539,2.70588235 20.4545455,4.37965899 20.4545455,6.42647059 C20.4545455,7.7142186 21.1178417,8.85468544 22.1271307,9.5234375 C21.4675572,9.77562912 20.8542072,10.1335111 20.337358,10.5909926 C19.5009569,9.79841704 18.4925506,9.19781872 17.3757102,8.83639706 C18.8037464,8.01686918 19.7727273,6.48414275 19.7727273,4.73529412 C19.7727273,2.12807601 17.6278282,0 15,0 Z M15,1.35294118 C16.8908659,1.35294118 18.4090909,2.85925954 18.4090909,4.73529412 C18.4090909,6.61132869 16.8908659,8.11764706 15,8.11764706 C13.1091344,8.11764706 11.5909091,6.61132869 11.5909091,4.73529412 C11.5909091,2.85925954 13.1091344,1.35294118 15,1.35294118 Z M5.79545455,4.05882353 C7.1214825,4.05882353 8.18181818,5.11084251 8.18181818,6.42647059 C8.18181818,7.74209832 7.1214825,8.79411765 5.79545455,8.79411765 C4.46942693,8.79411765 3.40909091,7.74209832 3.40909091,6.42647059 C3.40909091,5.11084251 4.46942693,4.05882353 5.79545455,4.05882353 Z M24.2045455,4.05882353 C25.5305731,4.05882353 26.5909091,5.11084251 26.5909091,6.42647059 C26.5909091,7.74209832 25.5305731,8.79411765 24.2045455,8.79411765 C22.8785175,8.79411765 21.8181818,7.74209832 21.8181818,6.42647059 C21.8181818,5.11084251 22.8785175,4.05882353 24.2045455,4.05882353 Z M15,9.80882353 C18.5902047,9.80882353 21.4772727,12.7457027 21.4772727,16.4361213 L21.4772727,20.6217831 C19.5312965,21.2555122 17.3481931,21.6470588 15,21.6470588 C12.6551069,21.6470588 10.4671002,21.253773 8.52272727,20.6217831 L8.52272727,16.4361213 C8.52272727,12.7462672 11.4097953,9.80882353 15,9.80882353 Z M24.2045455,10.4852941 C26.6709372,10.4852941 28.6363636,12.4393163 28.6363636,14.8929228 L28.6363636,17.9476103 C27.299597,18.3553901 25.8102481,18.6029412 24.2045455,18.6029412 C23.7450545,18.6029412 23.2889127,18.5784888 22.8409091,18.5395221 L22.8409091,16.4361213 C22.8409091,14.6259043 22.2437932,12.9575002 21.2428977,11.6162684 C22.026661,10.916079 23.0602735,10.4852941 24.2045455,10.4852941 Z" id="Shape"></path>
                        </g>
                    </g>
                </g>
            </g>
        </g>
    </g>
</svg>