<?xml version="1.0" encoding="UTF-8"?>
<svg width="60px" height="60px" viewBox="0 0 60 60" version="1.1" xmlns="http://www.w3.org/2000/svg" xmlns:xlink="http://www.w3.org/1999/xlink">
    <!-- Generator: Sketch 52.1 (67048) - http://www.bohemiancoding.com/sketch -->
    <title>Services</title>
    <desc>Created with Sketch.</desc>
    <g id="Page-1" stroke="none" stroke-width="1" fill="none" fill-rule="evenodd">
        <g id="Release-Notes" transform="translate(-1088.000000, -471.000000)">
            <g id="Services" transform="translate(1088.000000, 471.000000)">
                <g id="Group-27" fill="#FFEED4">
                    <g id="Group-8-Copy">
                        <g id="Group-6-Copy-2">
                            <g id="Group-22">
                                <g id="Group-21">
                                    <g id="Group-5">
                                        <circle id="Oval-2" cx="30" cy="30" r="30"></circle>
                                    </g>
                                </g>
                            </g>
                        </g>
                    </g>
                </g>
                <g id="Group" transform="translate(15.000000, 15.000000)">
                    <path d="M21.5425001,8.30125001 L15,0.448750001 L8.4575,8.3 L0.625000001,8.3 L0.625000001,29.55 L29.375,29.55 L29.375,8.3 L21.5425001,8.3 L21.5425001,8.30125001 Z M15,2.40250001 L19.9150001,8.30125001 L10.085,8.30125001 L15,2.40250001 Z M28.125,28.30125 L1.875,28.30125 L1.875,9.55125 L28.125,9.55125 L28.125,28.30125 Z" id="Shape" fill="#FF9900" fill-rule="nonzero"></path>
                    <path d="M22.085,19.80875 L20.1049999,22.77875 L21.1450001,23.4724999 L23.1250001,20.5025 L25.1050001,23.4724999 L26.145,22.77875 L24.165,19.80875 C25.37625,19.3775 26.25,18.2325 26.25,16.875 C26.25,15.15125 24.8475,13.75 23.1250001,13.75 C21.4024999,13.75 19.9999999,15.15125 19.9999999,16.875 C19.9999999,18.2337499 20.8737499,19.3787501 22.085,19.80875 Z M23.1250001,15.00125 C24.15875,15.00125 25.0000001,15.8425001 25.0000001,16.87625 C25.0000001,17.91 24.15875,18.75125 23.1250001,18.75125 C22.09125,18.75125 21.2500001,17.91 21.2500001,16.87625 C21.2500001,15.8425001 22.09125,15.00125 23.1250001,15.00125 Z" id="Shape" fill="#FF9900" fill-rule="nonzero"></path>
                    <rect id="Rectangle" fill="#FF9900" x="5.08483887" y="14.55125" width="13.3947754" height="1"></rect>
                    <rect id="Rectangle" fill="#FF9900" x="5.08483887" y="17.05125" width="13.3947754" height="1"></rect>
                    <g id="noun_Star_843641" transform="translate(10.000001, 20.000000)" stroke="#FF9900" stroke-width="0.75">
                        <path d="M3.69514145,1.39640625 C3.68339145,1.35869792 3.65209145,1.33125 3.61439145,1.32552083 L2.45719145,1.15036458 L1.93969145,0.0580729167 C1.92284145,0.0225 1.88804145,0 1.84999145,0 C1.81194144,0 1.77714144,0.0225 1.76034144,0.0580729167 L1.24284144,1.15036458 L0.0856414437,1.32552083 C0.0479914437,1.33119792 0.0166914437,1.35869792 0.00489144363,1.39640625 C-0.00685855636,1.43411458 0.00294144363,1.47552083 0.0301914437,1.50317709 L0.867541443,2.35338541 L0.669841443,3.55395834 C0.663391443,3.59302083 0.678841443,3.63255208 0.709591443,3.65583333 C0.740441444,3.67911459 0.781241444,3.6821875 0.814891443,3.66375 L1.84994145,3.09692709 L2.88494145,3.66375 C2.89959144,3.67171875 2.91554145,3.67567708 2.93149145,3.67567708 C2.95219145,3.67567708 2.97284145,3.66895833 2.99029145,3.65578125 C3.02104145,3.6325 3.03649145,3.59296875 3.03009144,3.55390625 L2.83244145,2.35333333 L3.66979145,1.503125 C3.69709145,1.47552083 3.70689144,1.43411458 3.69514145,1.39640625 Z" id="Shape"></path>
                    </g>
                    <g id="noun_Star_843641-Copy-2" transform="translate(5.000000, 20.000000)" stroke="#FF9900" stroke-width="0.75">
                        <path d="M3.69514145,1.39640625 C3.68339145,1.35869792 3.65209145,1.33125 3.61439145,1.32552083 L2.45719145,1.15036458 L1.93969145,0.0580729167 C1.92284145,0.0225 1.88804145,0 1.84999145,0 C1.81194144,0 1.77714144,0.0225 1.76034144,0.0580729167 L1.24284144,1.15036458 L0.0856414437,1.32552083 C0.0479914437,1.33119792 0.0166914437,1.35869792 0.00489144363,1.39640625 C-0.00685855636,1.43411458 0.00294144363,1.47552083 0.0301914437,1.50317709 L0.867541443,2.35338541 L0.669841443,3.55395834 C0.663391443,3.59302083 0.678841443,3.63255208 0.709591443,3.65583333 C0.740441444,3.67911459 0.781241444,3.6821875 0.814891443,3.66375 L1.84994145,3.09692709 L2.88494145,3.66375 C2.89959144,3.67171875 2.91554145,3.67567708 2.93149145,3.67567708 C2.95219145,3.67567708 2.97284145,3.66895833 2.99029145,3.65578125 C3.02104145,3.6325 3.03649145,3.59296875 3.03009144,3.55390625 L2.83244145,2.35333333 L3.66979145,1.503125 C3.69709145,1.47552083 3.70689144,1.43411458 3.69514145,1.39640625 Z" id="Shape"></path>
                    </g>
                    <g id="noun_Star_843641-Copy" transform="translate(15.000000, 20.000000)" stroke="#FF9900" stroke-width="0.75">
                        <path d="M3.69514145,1.39640625 C3.68339145,1.35869792 3.65209145,1.33125 3.61439145,1.32552083 L2.45719145,1.15036458 L1.93969145,0.0580729167 C1.92284145,0.0225 1.88804145,0 1.84999145,0 C1.81194144,0 1.77714144,0.0225 1.76034144,0.0580729167 L1.24284144,1.15036458 L0.0856414437,1.32552083 C0.0479914437,1.33119792 0.0166914437,1.35869792 0.00489144363,1.39640625 C-0.00685855636,1.43411458 0.00294144363,1.47552083 0.0301914437,1.50317709 L0.867541443,2.35338541 L0.669841443,3.55395834 C0.663391443,3.59302083 0.678841443,3.63255208 0.709591443,3.65583333 C0.740441444,3.67911459 0.781241444,3.6821875 0.814891443,3.66375 L1.84994145,3.09692709 L2.88494145,3.66375 C2.89959144,3.67171875 2.91554145,3.67567708 2.93149145,3.67567708 C2.95219145,3.67567708 2.97284145,3.66895833 2.99029145,3.65578125 C3.02104145,3.6325 3.03649145,3.59296875 3.03009144,3.55390625 L2.83244145,2.35333333 L3.66979145,1.503125 C3.69709145,1.47552083 3.70689144,1.43411458 3.69514145,1.39640625 Z" id="Shape"></path>
                    </g>
                </g>
            </g>
        </g>
    </g>
</svg>