<?xml version="1.0" encoding="UTF-8"?>
<svg width="70px" height="70px" viewBox="0 0 70 70" version="1.1" xmlns="http://www.w3.org/2000/svg" xmlns:xlink="http://www.w3.org/1999/xlink">
    <!-- Generator: Sketch 50.2 (55047) - http://www.bohemiancoding.com/sketch -->
    <title>Group 17</title>
    <desc>Created with Sketch.</desc>
    <defs></defs>
    <g id="UI" stroke="none" stroke-width="1" fill="none" fill-rule="evenodd">
        <g id="Release-Notes" transform="translate(-530.000000, -1771.000000)">
            <g id="Group-19" transform="translate(530.000000, 1771.000000)">
                <g id="Group-18">
                    <g id="Group-17">
                        <g id="Group-5" fill="#F1ECFF">
                            <circle id="Oval-2" cx="35" cy="35" r="35"></circle>
                        </g>
                        <g id="noun_1187700_cc" transform="translate(17.500000, 22.166667)" fill="#7C4DFF" fill-rule="nonzero">
                            <path d="M17.5,0 C14.4342005,0 11.9318182,2.48275535 11.9318182,5.5245098 C11.9318182,7.56483321 13.0622959,9.35301404 14.7283381,10.3091299 C13.4253577,10.7307372 12.2488836,11.4315375 11.2730824,12.3561581 C10.6700916,11.8224297 9.95451665,11.4049006 9.1850142,11.1106771 C10.3574891,10.3296594 11.1363636,8.99609125 11.1363636,7.49754902 C11.1363636,5.10960215 9.16818716,3.15686275 6.76136364,3.15686275 C4.35454011,3.15686275 2.38636364,5.10960215 2.38636364,7.49754902 C2.38636364,8.99609125 3.16523852,10.3296594 4.33771307,11.1106771 C1.80124477,12.0802802 0,14.5154285 0,17.3750766 L0,21.5431219 C0.00242831586,21.8770994 0.216462056,22.1734087 0.534446023,22.2830116 C2.16717494,22.8452966 4.00067102,23.194169 5.94105114,23.2695313 C6.22524898,23.2805604 6.49378775,23.140318 6.64550534,22.9016351 C6.79722292,22.6629523 6.80906813,22.3620932 6.67657871,22.1123956 C6.5440893,21.862698 6.28739503,21.7020996 6.00319602,21.6910999 C4.41453051,21.6293978 2.93612216,21.3488265 1.59090909,20.9388787 L1.59090909,17.3750766 C1.59090909,14.5125357 3.88390665,12.2328431 6.76136364,12.2328431 C8.09634756,12.2328431 9.30222881,12.7354256 10.2166193,13.5523131 C9.04890795,15.1170457 8.35227273,17.0632835 8.35227273,19.1754749 L8.35227273,24.6753217 C8.35281663,25.0061154 8.56120607,25.3014797 8.87428977,25.4152114 C11.4448604,26.3231733 14.3845709,26.8333333 17.5,26.8333333 C20.6154291,26.8333333 23.5430865,26.3230391 26.1132813,25.4152114 C26.4312652,25.3056085 26.645299,25.0092991 26.6477273,24.6753217 L26.6477273,23.2078738 C27.1705243,23.2509381 27.6986834,23.2818627 28.2386364,23.2818627 C30.4853142,23.2818627 32.6033826,22.9243125 34.465554,22.2830116 C34.7835379,22.1734087 34.9975717,21.8770994 35,21.5431219 L35,17.3750766 C35,14.5154285 33.1987552,12.0802802 30.6622869,11.1106771 C31.8347615,10.3296594 32.6136364,8.99609125 32.6136364,7.49754902 C32.6136364,5.10960215 30.6454599,3.15686275 28.2386364,3.15686275 C25.8318128,3.15686275 23.8636364,5.10960215 23.8636364,7.49754902 C23.8636364,8.9999217 24.637482,10.3304663 25.8149858,11.1106771 C25.0454834,11.4049006 24.3299084,11.8224297 23.7269176,12.3561581 C22.7511164,11.4314866 21.5746423,10.7307885 20.2716619,10.3091299 C21.9377041,9.35301404 23.0681818,7.56483321 23.0681818,5.5245098 C23.0681818,2.48275535 20.5657995,0 17.5,0 Z M17.5,1.57843137 C19.7060102,1.57843137 21.4772727,3.3358028 21.4772727,5.5245098 C21.4772727,7.71321681 19.7060102,9.47058824 17.5,9.47058824 C15.2939902,9.47058824 13.5227273,7.71321681 13.5227273,5.5245098 C13.5227273,3.3358028 15.2939902,1.57843137 17.5,1.57843137 Z M6.76136364,4.73529412 C8.30839625,4.73529412 9.54545455,5.9626496 9.54545455,7.49754902 C9.54545455,9.03244804 8.30839625,10.2598039 6.76136364,10.2598039 C5.21433142,10.2598039 3.97727273,9.03244804 3.97727273,7.49754902 C3.97727273,5.9626496 5.21433142,4.73529412 6.76136364,4.73529412 Z M28.2386364,4.73529412 C29.7856686,4.73529412 31.0227273,5.9626496 31.0227273,7.49754902 C31.0227273,9.03244804 29.7856686,10.2598039 28.2386364,10.2598039 C26.6916038,10.2598039 25.4545455,9.03244804 25.4545455,7.49754902 C25.4545455,5.9626496 26.6916038,4.73529412 28.2386364,4.73529412 Z M17.5,11.4436275 C21.6885721,11.4436275 25.0568182,14.8699864 25.0568182,19.1754749 L25.0568182,24.0587469 C22.7865126,24.7980976 20.2395586,25.254902 17.5,25.254902 C14.7642914,25.254902 12.2116169,24.7960685 9.94318182,24.0587469 L9.94318182,19.1754749 C9.94318182,14.870645 13.3114279,11.4436275 17.5,11.4436275 Z M28.2386364,12.2328431 C31.1160934,12.2328431 33.4090909,14.5125357 33.4090909,17.3750766 L33.4090909,20.9388787 C31.8495299,21.4146218 30.1119561,21.7034314 28.2386364,21.7034314 C27.7025636,21.7034314 27.1703982,21.6749036 26.6477273,21.6294424 L26.6477273,19.1754749 C26.6477273,17.063555 25.951092,15.1170836 24.7833807,13.5523131 C25.6977712,12.7354256 26.9036524,12.2328431 28.2386364,12.2328431 Z" id="Shape"></path>
                        </g>
                    </g>
                </g>
            </g>
        </g>
    </g>
</svg>