<?xml version="1.0" encoding="UTF-8" standalone="no"?>
<svg width="16px" height="21px" viewBox="0 0 16 21" version="1.1" xmlns="http://www.w3.org/2000/svg" xmlns:xlink="http://www.w3.org/1999/xlink">
    <!-- Generator: Sketch 3.8.1 (29687) - http://www.bohemiancoding.com/sketch -->
    <title>gopher</title>
    <desc>Created with Sketch.</desc>
    <defs></defs>
    <g id="Gopher" stroke="none" stroke-width="1" fill="none" fill-rule="evenodd">
        <path d="M4.30850371,20.4155655 C5.26306841,20.7053864 6.76177211,20.8678876 8.10362861,20.8993209 L8.11160004,20.8993209 L8.11957147,20.8993209 C9.33855505,20.8707659 10.5693057,20.7340476 11.4513918,20.4919761 C11.3679151,20.7121301 12.1572144,21.1619326 13.0299732,20.7527732 C13.2850591,20.6306502 13.2770876,20.4678195 13.117659,20.231715 C12.978261,20.020529 12.8429258,19.918613 12.7039567,19.8890808 C14.450898,18.5747425 14.8757032,16.4379827 14.8937155,14.3189708 C15.5459082,14.1853468 15.2800844,12.7777035 14.8454009,12.7485373 C14.7502476,11.219254 14.5566159,9.81559924 14.6402024,8.88241491 C14.7757167,7.35994783 14.8952882,5.81305614 14.7199167,4.77093963 C14.6242595,4.19289063 16.4895745,4.05448453 15.8757743,2.75998044 C15.3416884,1.64459011 14.0503165,2.62971587 13.7234878,2.27962986 C12.0494872,0.521058253 10.0247436,0.0814153521 8.43842873,0 L7.56157127,0 C5.96728498,0.040707676 3.94254139,0.512916718 2.27651222,2.27962986 C1.94968353,2.62971587 0.650340204,1.64459011 0.124225729,2.75998044 C-0.489574493,4.06262607 1.37574047,4.19289063 1.28008329,4.77093963 C1.09674037,5.81305614 1.21631184,7.35994783 1.3597976,8.88241491 C1.44049993,9.81557743 1.24503917,11.2191884 1.14833183,12.7484301 C0.712594937,12.7740267 0.445212974,14.1854652 1.09851639,14.3190124 C1.11488969,16.4771806 1.55330113,18.653753 3.37884003,19.9611191 C3.20746065,19.9610506 3.04392038,20.0562632 2.87436958,20.3131303 C2.71494095,20.5492349 2.70696952,20.7120656 2.96205532,20.8341886 C3.93456996,21.2901146 4.80345599,20.6794994 4.4766273,20.5085272 C4.41881832,20.4786666 4.36283714,20.4473917 4.30850371,20.4155655 Z M10.2781111,4.06062858 C8.36865863,4.27582163 8.62592019,6.1960058 9.36340333,6.81951388 C10.735465,7.97824571 12.1646959,6.81951388 12.004622,5.64974651 C11.8616989,4.52412131 10.8726712,3.99441533 10.2781111,4.06062858 Z M5.7444661,4.06062858 C7.65391858,4.27582163 7.39665702,6.1960058 6.65917388,6.81951388 C5.28711222,7.97824571 3.85788132,6.81951388 4.01795518,5.64974651 C4.16659519,4.52412131 5.15562297,3.99441533 5.7444661,4.06062858 Z" id="gopher" fill="#1A82E2"></path>
    </g>
</svg>
