<?xml version="1.0" encoding="UTF-8" standalone="no"?>
<svg width="45px" height="41px" viewBox="0 0 45 41" version="1.1" xmlns="http://www.w3.org/2000/svg" xmlns:xlink="http://www.w3.org/1999/xlink">
    <!-- Generator: Sketch 40.2 (33826) - http://www.bohemiancoding.com/sketch -->
    <title>icon-faq</title>
    <desc>Created with Sketch.</desc>
    <defs></defs>
    <g id="UI" stroke="none" stroke-width="1" fill="none" fill-rule="evenodd" opacity="0.7">
        <g id="Migration-Toolkit-Home" transform="translate(-635.000000, -349.000000)">
            <g id="Content" transform="translate(487.000000, 183.000000)">
                <g id="Getting-Started" transform="translate(0.000000, 140.000000)">
                    <g id="FAQ">
                        <g id="icon-faq" transform="translate(148.000000, 24.000000)">
                            <rect id="Rectangle-path" x="0" y="0" width="45" height="45"></rect>
                            <path d="M22.5,37.996875 C19.84125,37.996875 17.296875,37.605 14.945625,36.886875 L4.37050643,41.8095543 C3.36817509,42.2761359 2.95272544,41.8617085 3.45130326,40.8664794 L7.408125,32.968125 C3.414375,29.775 0.939375,25.325625 0.939375,20.405625 C0.9375,10.6875 10.59,2.8125 22.5,2.8125 C34.41,2.8125 44.0625,10.6875 44.0625,20.405625 C44.0625,30.12 34.41,37.996875 22.5,37.996875 Z" id="Shape" stroke="#294661" stroke-width="1.5"></path>
                            <path d="M23.5,29.125 C23.5,29.677 23.052,30.125 22.5,30.125 L22.5,30.125 C21.948,30.125 21.5,29.677 21.5,29.125 L21.5,29.125 C21.5,28.573 21.948,28.125 22.5,28.125 L22.5,28.125 C23.052,28.125 23.5,28.573 23.5,29.125 L23.5,29.125 L23.5,29.125 Z" id="Shape" stroke="#FF4081" stroke-width="1.5"></path>
                            <path d="M16.8125,15.9375 C16.8125,12.830625 19.330625,10.3125 22.4375,10.3125 C25.544375,10.3125 28.0625,12.830625 28.0625,15.9375 C28.0625,19.044375 25.544375,21.5625 22.4375,21.5625 L22.4375,24.375" id="Shape" stroke="#FF4081" stroke-width="1.5" stroke-linecap="round"></path>
                        </g>
                    </g>
                </g>
            </g>
        </g>
    </g>
</svg>