<?xml version="1.0" encoding="UTF-8" standalone="no"?>
<svg width="45px" height="45px" viewBox="0 0 45 45" version="1.1" xmlns="http://www.w3.org/2000/svg" xmlns:xlink="http://www.w3.org/1999/xlink">
    <!-- Generator: Sketch 40.2 (33826) - http://www.bohemiancoding.com/sketch -->
    <title>icon-why-mc</title>
    <desc>Created with Sketch.</desc>
    <defs></defs>
    <g id="UI" stroke="none" stroke-width="1" fill="none" fill-rule="evenodd" opacity="0.7">
        <g id="Migration-Toolkit-Home" transform="translate(-635.000000, -571.000000)">
            <g id="Content" transform="translate(487.000000, 183.000000)">
                <g id="Getting-Started" transform="translate(0.000000, 140.000000)">
                    <g id="Why-MC?" transform="translate(0.000000, 224.000000)">
                        <g id="icon-why-mc" transform="translate(148.000000, 24.000000)">
                            <rect id="Rectangle-path" x="0" y="0" width="45" height="45"></rect>
                            <path d="M36.5625,16.40625 L44.0625,21.5625 L44.0625,41.25 C44.0625,42.8025 42.8025,44.0625 41.25,44.0625 L3.75,44.0625 C2.1975,44.0625 0.9375,42.8025 0.9375,41.25 L0.9375,21.5625 L8.4375,16.40625" id="Shape" stroke="#294661" stroke-width="1.5" stroke-linejoin="round"></path>
                            <polyline id="Shape" stroke="#294661" stroke-width="1.5" stroke-linecap="round" stroke-linejoin="round" points="6.5625 38.4375 15.9375 30.9375 29.0625 30.9375 38.4375 38.4375"></polyline>
                            <polyline id="Shape" stroke="#FF9900" stroke-width="1.5" points="36.5625 26.563125 36.5625 0.9375 8.4375 0.9375 8.4375 26.563125"></polyline>
                            <path d="M44.0625,21.5625 L32.8125,29.0625" id="Shape" stroke="#294661" stroke-width="1.5" stroke-linecap="round"></path>
                            <path d="M0.9375,21.5625 L12.1875,29.0625" id="Shape" stroke="#294661" stroke-width="1.5" stroke-linecap="round"></path>
                            <polygon id="Shape" stroke="#FDD835" stroke-width="1.5" stroke-linejoin="round" points="25.8693183 16.3552273 29.9275001 12.9734091 25.1929546 12.9734091 22.4983219 7.5625 19.8036891 12.9734091 15.0475 12.9734091 19.1273255 16.3552273 17.0982346 22.4425001 22.4983219 18.7346746 27.8984092 22.4425001"></polygon>
                        </g>
                    </g>
                </g>
            </g>
        </g>
    </g>
</svg>