<?xml version="1.0" encoding="UTF-8" standalone="no"?>
<svg width="45px" height="49px" viewBox="0 0 45 49" version="1.1" xmlns="http://www.w3.org/2000/svg" xmlns:xlink="http://www.w3.org/1999/xlink" xmlns:sketch="http://www.bohemiancoding.com/sketch/ns">
    <!-- Generator: Sketch 3.4.4 (17249) - http://www.bohemiancoding.com/sketch -->
    <title>integrate-icon</title>
    <desc>Created with Sketch.</desc>
    <defs></defs>
    <g id="Docs-1.2" stroke="none" stroke-width="1" fill="none" fill-rule="evenodd" sketch:type="MSPage">
        <g id="IA-v2-&gt;-Home-v2" sketch:type="MSArtboardGroup" transform="translate(-819.000000, -355.000000)" stroke-width="1.5" stroke-linejoin="round">
            <g id="Content" sketch:type="MSLayerGroup" transform="translate(250.000000, 227.000000)">
                <g id="Getting-Started" transform="translate(0.000000, 105.000000)" sketch:type="MSShapeGroup">
                    <g id="Utilities" transform="translate(400.000000, 0.000000)">
                        <g id="integrate-icon" transform="translate(170.000000, 24.000000)">
                            <path d="M39.6161985,22.0976 L42.5941397,16.9016 L39.6161985,15.1696 C39.9239191,13.7576 39.9477426,12.3396 39.6142132,10.8296 L42.5941397,9.0976 L39.6161985,3.9016 L36.7494338,5.6376 C35.6932574,4.6596 34.1387721,3.9016 33.146125,3.4596 L33.146125,-0.0004 L27.1902426,-0.0004 L27.1902426,3.4596 C25.2049485,3.9036 24.404875,4.6596 23.3486985,5.6396 L20.3012721,3.9016 L17.2955368,9.0976 L20.2575956,10.8296 C19.9518603,12.2316 19.9181103,13.6496 20.2516397,15.1696 L17.2677426,16.9016 L20.2436985,22.0976 L23.3467132,20.3616 C24.404875,21.3396 25.2049485,22.0976 27.1902426,22.5416 L27.1902426,25.9996 L33.146125,25.9996 L33.146125,22.5416 C34.1387721,22.0976 35.6932574,21.3396 36.7534044,20.3616 L39.6161985,22.0976 L39.6161985,22.0976 Z" id="Stroke-858" stroke="#00BCD4"></path>
                            <path d="M33.9007353,13 C33.9007353,15.208 32.1238971,17 29.9301471,17 C27.7423529,17 25.9595588,15.208 25.9595588,13 C25.9595588,10.792 27.7423529,9 29.9301471,9 C32.1238971,9 33.9007353,10.792 33.9007353,13 L33.9007353,13 Z" id="Stroke-859" stroke="#00BCD4"></path>
                            <path d="M22.7559044,43.0976 L25.7338456,37.9016 L22.7559044,36.1696 C23.063625,34.7576 23.0874485,33.3396 22.7539191,31.8296 L25.7338456,30.0976 L22.7559044,24.9016 L19.8891397,26.6376 C18.8309779,25.6596 17.2784779,24.9016 16.2858309,24.4596 L16.2858309,20.9996 L10.3299485,20.9996 L10.3299485,24.4596 C8.34465441,24.9036 7.54458088,25.6596 6.48840441,26.6396 L3.44097794,24.9016 L0.435242647,30.0976 L3.39730147,31.8296 C3.09156618,33.2316 3.05781618,34.6496 3.39134559,36.1696 L0.407448529,37.9016 L3.38340441,43.0976 L6.48641912,41.3616 C7.54458088,42.3396 8.34465441,43.0976 10.3299485,43.5416 L10.3299485,46.9996 L16.2858309,46.9996 L16.2858309,43.5416 C17.2784779,43.0976 18.8309779,42.3396 19.8931103,41.3616 L22.7559044,43.0976 L22.7559044,43.0976 Z" id="Stroke-860" stroke="#7B1FA2"></path>
                            <path d="M17.0404412,34 C17.0404412,36.208 15.2636029,38 13.0698529,38 C10.8820588,38 9.09926471,36.208 9.09926471,34 C9.09926471,31.792 10.8820588,30 13.0698529,30 C15.2636029,30 17.0404412,31.792 17.0404412,34 L17.0404412,34 Z" id="Stroke-861" stroke="#7B1FA2"></path>
                        </g>
                    </g>
                </g>
            </g>
        </g>
    </g>
</svg>
